<svg xmlns="http://www.w3.org/2000/svg" version="1.1" xmlns:xlink="http://www.w3.org/1999/xlink" xmlns:svgjs="http://svgjs.com/svgjs" width="512" height="512" x="0" y="0" viewBox="0 0 682.667 682.667" style="enable-background:new 0 0 512 512" xml:space="preserve" class=""><g><defs><clipPath id="a" clipPathUnits="userSpaceOnUse"><path d="M0 512h512V0H0Z" fill="#000000" data-original="#000000"></path></clipPath></defs><g clip-path="url(#a)" transform="matrix(1.33333 0 0 -1.33333 0 682.667)"><path d="M0 0c-70.128 25.349-117.863 61.583-137.806 82.866-20.908-22.811-132.878-16.791-154.076 15.678h-17.314c0-10.497-53.848-64.4-148.308-98.544-11.863-4.288-19.748-15.579-19.748-28.193v-86.238H-.178l9.963 57.215z" style="fill-opacity:1;fill-rule:nonzero;stroke:none" transform="translate(484.752 121.93)" fill="#607882" data-original="#607882"></path><path d="M0 0c0 12.614-7.885 23.905-19.748 28.193l-.178-114.43H0Z" style="fill-opacity:1;fill-rule:nonzero;stroke:none" transform="translate(504.5 93.737)" fill="#485959" data-original="#485959"></path><path d="M0 0c22.341.002 50.037 12.957 70.945 35.769-6.92 7.384-10.503 12.973-10.503 15.677H-83.131C-61.933 18.978-27.042 0 0 0" style="fill-opacity:1;fill-rule:nonzero;stroke:none" transform="translate(276.001 169.028)" fill="#485959" data-original="#485959"></path><path d="M0 0v-40.021c0-64.854 28.684-128.196 51.796-168.706l36.192-.002c17.802 0 50.331 68.067 60.071 133.221z" style="fill-opacity:1;fill-rule:nonzero;stroke:none" transform="translate(175.556 260.496)" fill="#f5fcff" data-original="#f5fcff"></path><path d="M0 0c11.384.001 24.162 3.382 36.72 9.7C26.983-46.723.612-95.633-12.452-117.261l21.102-.002C31.762-76.752 60.447-13.409 60.447 51.446v40.023h-20l-140.887-.001c8.437-40.879 38.465-70.561 67.938-83.794C-21.322 2.653-10.112 0 0 0" style="fill-opacity:1;fill-rule:nonzero;stroke:none" transform="translate(275.996 169.028)" fill="#d3effd" data-original="#d3effd"></path><path d="M0 0c0-4.776 13.649-21.833 13.649-21.833S0-69.8 0-99.612l.01-.008-.006.011.006-.011c.221-.166 13.639-15.284 28.642-25.925 0 0 14.997 14.619 21.646 30.932-2.737 26.648-13.649 72.78-13.649 72.78S50.843 7.23 50.846 12.01a202.176 202.176 0 0 1-3.934 5.669l-30.763 7.649C8.341 15.463 0 2.824 0 0" style="fill-opacity:1;fill-rule:nonzero;stroke:none" transform="translate(227.348 151.379)" fill="#607882" data-original="#607882"></path><path d="M0 0c-1.953 0-7.099-5.497-12.5-12.321 10.544-4.734 21.112-7.366 30.763-7.65C11.191-10.137 2.653 0 0 0" style="fill-opacity:1;fill-rule:nonzero;stroke:none" transform="translate(255.997 189.028)" fill="#485959" data-original="#485959"></path><path d="M0 0c0 29.812-13.649 77.78-13.649 77.78S0 94.837 0 99.613c0 1.605-2.697 6.379-6.453 12.01-.002-3.857-14.459-23.532-20.037-30.98a7.476 7.476 0 0 1-1.26-6.339C-25.083 63.837-17.259 31.988-15 10a415.246 415.246 0 0 0-9.581-15.704c-2.606-4.055-7.573-5.855-12.198-4.495C-48.121-6.867-57.109-.142-57.288-.007c15.59-27.324 28.642-44.259 28.642-44.259S-15.592-27.328 0 0" style="fill-opacity:1;fill-rule:nonzero;stroke:none" transform="translate(284.646 51.766)" fill="#485959" data-original="#485959"></path><path d="M0 0c0-17.974-2.983-45.297-16.858-45.297-21.875 0-33.389 27.323-33.389 45.297 0 17.975 11.248 32.545 25.123 32.545C-11.248 32.545 0 17.975 0 0" style="fill-opacity:1;fill-rule:nonzero;stroke:none" transform="translate(170.751 349.647)" fill="#bf8070" data-original="#915041" class="" opacity="1"></path><path d="M0 0c0-17.974 2.983-45.297 16.858-45.297 21.876 0 33.389 27.323 33.389 45.297 0 17.975-11.248 32.545-25.123 32.545C11.249 32.545 0 17.975 0 0" style="fill-opacity:1;fill-rule:nonzero;stroke:none" transform="translate(341.241 349.647)" fill="#bf8070" data-original="#915041" class="" opacity="1"></path><path d="M0 0v84.827c0 46.547-14.577 81.622-38.296 102.041-14.81 8.628-32.83 13.281-53.808 13.281-65.385 0-102.103-45.14-102.103-115.322V0c0-70.182 60.391-115.322 102.103-115.322h.005C-53.107-112.246 0-70.181 0 0" style="fill-opacity:1;fill-rule:nonzero;stroke:none" transform="translate(348.1 304.35)" fill="#d58871" data-original="#b46e5a" class="" opacity="1"></path><path d="M0 0c18.448-20.913 28.296-55.494 28.296-102.041v-84.827c0-70.181-48.095-109.918-82.099-115.322 41.712.003 102.098 45.143 102.098 115.322v84.827C48.295-54.375 31.353-18.268 0 0" style="fill-opacity:1;fill-rule:nonzero;stroke:none" transform="translate(309.804 491.219)" fill="#bf8070" data-original="#915041" class="" opacity="1"></path><path d="m0 0-10 28.447h-52.103c-8.284 0-15-6.715-15-15V4c0-4.035.521-7.754 1.485-11.157 6.722-12.735 27.425-17.3 38.341-17.3C-17.816-24.457 0-17.26 0 0" style="fill-opacity:1;fill-rule:nonzero;stroke:none" transform="translate(348.1 354.357)" fill="#607882" data-original="#607882"></path><path d="M0 0h-5v-18.447c0-17.26-17.816-24.457-37.277-24.457-10.916 0-21.313 2.265-28.341 7.3 5.14-18.15 22.921-27.3 42.067-27.3C-5.815-62.904 15-50.002 15-24.447V-15C15-6.715 8.285 0 0 0" style="fill-opacity:1;fill-rule:nonzero;stroke:none" transform="translate(343.1 382.805)" fill="#485959" data-original="#485959"></path><path d="m0 0-10 28.448h-52.104c-8.284 0-15-6.716-15-15V4c0-4.035.522-7.754 1.486-11.157 6.721-12.735 27.424-17.3 38.34-17.3C-17.816-24.457 0-17.26 0 0" style="fill-opacity:1;fill-rule:nonzero;stroke:none" transform="translate(230.997 354.357)" fill="#607882" data-original="#607882"></path><path d="M0 0h-5v-18.448c0-17.26-17.816-24.457-37.278-24.457-10.916 0-21.312 2.265-28.34 7.3 5.139-18.149 22.92-27.3 42.066-27.3C-5.815-62.905 15-50.003 15-24.448V-15C15-6.716 8.284 0 0 0" style="fill-opacity:1;fill-rule:nonzero;stroke:none" transform="translate(225.997 382.806)" fill="#485959" data-original="#485959"></path><path d="M0 0c0-32.566 9.918-36.68 9.918-45.496 0-8.816-16.651-18.962-24.915-18.962-8.263 0-24.915 10.146-24.915 18.962C-39.912-36.68-30-32.566-30 0c0 0 3.435 9.448 15 9.448S0 0 0 0" style="fill-opacity:1;fill-rule:nonzero;stroke:none" transform="translate(270.997 358.357)" fill="#bf8070" data-original="#915041" class="" opacity="1"></path><path d="M0 0c-.176 29.851-13.647 77.192-13.647 77.192S.002 94.249.002 99.025c0 4.778-23.873 37.65-28.649 37.65-4.777 0-28.649-32.872-28.649-37.65 0-4.776 13.649-21.833 13.649-21.833S-57.118 29.851-57.294 0m13.647 306.004s3.435 9.448 15 9.448 15-9.448 15-9.448m-117.103-17.612c-17.523 0-40.931-14.411-40.931-40.899 0-13.714 7.609-21.102 7.609-21.102s-14.559-1.309-16.098-14.993c-1.538-13.683 12.366-18.193 12.366-18.193s-13.129-6.428-9.673-19.757c3.456-13.329 18.054-12.569 18.054-12.569s-9.962-10.697-1.968-21.909 21.354-5.283 21.354-5.283M19.601-44.854S111.81 43.928 111.81 57.07c0 12.46-26.113 70.145-28.832 76.117m-192.065 34.933c0-108.605 80.443-212.974 80.443-212.974S51.8 59.515 51.8 168.12M219.856-44.854v86.238c0 12.614-7.884 23.905-19.748 28.193a463.56 463.56 0 0 0-21.528 8.393m-27.667 12.696C87.188 122.575 51.8 159.611 51.8 168.12v14.717m-191.837-49.15s-29.06-63.473-29.06-76.617c0-4.568 11.139-18.273 25.675-34.213M-121.85 0c22.665-23.386 44.962-44.854 44.962-44.854m-32.199 227.691V168.12c0-10.496-53.849-64.399-148.309-98.543-11.863-4.288-19.748-15.579-19.748-28.193v-86.238M14.908 202.004c-9.618 5.334-24.572 9.542-43.552 9.542s-33.933-4.208-43.551-9.542m-43.555 128.448c-8.285 0-15-6.716-15-15v-9.448c0-25.555 20.815-38.458 43.551-38.458 22.737 0 43.552 12.903 43.552 38.458v9.448c0 8.284-6.716 15-15 15zm102.103-24.448c0-32.567 9.918-36.68 9.918-45.496 0-8.816-16.651-18.962-24.915-18.962-8.263 0-24.915 10.146-24.915 18.962 0 8.816 9.912 12.929 9.912 45.496m45 24.448c-8.284 0-15-6.716-15-15v-9.448c0-25.555 20.815-38.458 43.552-38.458 22.736 0 43.551 12.903 43.551 38.458v9.448c0 8.284-6.715 15-15 15zm-98.683 97.457c-21.803-20.054-33.42-51.607-33.42-91.085v-84.827c0-70.182 60.391-115.322 102.103-115.322 41.712 0 102.103 45.14 102.103 115.322v84.827c0 70.182-36.717 115.322-102.103 115.322-15.982 0-30.251-2.697-42.69-7.796M74.528 328.483a19.884 19.884 0 0 0 7.201 1.356c13.875 0 25.123-14.57 25.123-32.545 0-17.704-11.17-44.479-32.411-45.278m-206.17 0c-21.24.799-32.41 27.574-32.41 45.278 0 17.975 11.248 32.545 25.123 32.545 2.503 0 4.92-.474 7.201-1.356" style="stroke-width:15;stroke-linecap:round;stroke-linejoin:round;stroke-miterlimit:10;stroke-dasharray:none;stroke-opacity:1" transform="translate(284.644 52.353)" fill="none" stroke="#000000" stroke-width="15" stroke-linecap="round" stroke-linejoin="round" stroke-miterlimit="10" stroke-dasharray="none" stroke-opacity="" data-original="#000000"></path></g></g></svg>