<svg xmlns="http://www.w3.org/2000/svg" version="1.1" xmlns:xlink="http://www.w3.org/1999/xlink" xmlns:svgjs="http://svgjs.com/svgjs" width="512" height="512" x="0" y="0" viewBox="0 0 64 64" style="enable-background:new 0 0 512 512" xml:space="preserve" class=""><g><path d="M51 51c-2.206 0-4 1.794-4 4s1.794 4 4 4 4-1.794 4-4-1.794-4-4-4zm0 6c-1.103 0-2-.897-2-2s.897-2 2-2 2 .897 2 2-.897 2-2 2z" fill="#ffffff" data-original="#000000" class="" opacity="1"></path><path d="m63.281 57-1.297-5.184A11.616 11.616 0 0 0 59 46.492V4c0-1.654-1.346-3-3-3h-8c-1.654 0-3 1.346-3 3v1H33c-1.103 0-2 .897-2 2v18h-4a1.99 1.99 0 0 0-.658-1.473l2.631-15.663a2.026 2.026 0 0 0-1.505-2.285l-2.096-.52a2.021 2.021 0 0 0-2.48 1.621L20.152 23H19v-6c0-1.103-.897-2-2-2h-2.233l-.534-2.848 3.277-.904c1.018-.283 1.655-1.329 1.452-2.382l-.62-3.206a2.05 2.05 0 0 0-.93-1.358 2 2 0 0 0-1.582-.229l-.263.073-.597-2.388-1.94.484.609 2.435-1.113.307-.556-2.226-1.94.484.568 2.273-.952.263-.698-2.094-1.896.632.665 1.994-1.271.351-.476-1.903-1.94.484.488 1.951-.977.27-.593-1.779-1.896.632.631 1.894a2.08 2.08 0 0 0-.645 1.924l.62 3.206a2.05 2.05 0 0 0 .93 1.358 2.007 2.007 0 0 0 1.582.23l3.219-.888L9.58 25H9c-1.103 0-2 .897-2 2v2c0 1.103.897 2 2 2h.138l2.7 18H9c-1.103 0-2 .897-2 2v4c0 1.103.897 2 2 2h2c0 3.309 2.691 6 6 6s6-2.691 6-6h20.263c.892 3.445 4.017 6 7.737 6s6.845-2.555 7.737-6zM57 44.856A11.617 11.617 0 0 0 50.693 43c-3.9 0-7.521 1.938-9.684 5.183l-.544.817H37V29h8v12.868l7-4.666 5 3.333zM31 31v18h-1.895l1.8-18zm2-2V11h2v38h-2zm20-18h4v21.586l-4-4zm4-2H47V7h10zm-6 2v17.586l-4 4V11zM37 25h8v2h-8zm8-2h-8V11h8zm12 15.132-5-3.334-5 3.334v-2.718l5-5 5 5V38zM47 4a1 1 0 0 1 1-1h8a1 1 0 0 1 1 1v1H47zM33 7h12v2H33V8zm-2 20v2h-4v-2zM24.892 7.001 27 7.533 24.402 23h-2.22zM25 25v12h-2v-6h-2v4h-2V25zm-8-8v8h-.358l-1.5-8zM3.621 12.961l-.62-3.206c-.008-.044.017-.072.024-.075l13.354-3.641.598 3.281zm5.7.546 2.978-.821L14.608 25H11.62zM9 27h8v2H9zm2.161 4H17v4c0 1.103.897 2 2 2h2c0 1.103.897 2 2 2h2c1.103 0 2-.897 2-2v-6h1.895l-1.8 18H13.862zM17 61c-2.206 0-4-1.794-4-4h2c0 1.103.897 2 2 2s2-.897 2-2h2c0 2.206-1.794 4-4 4zm-8-6v-4h32.535l1.139-1.708A9.616 9.616 0 0 1 50.693 45a9.625 9.625 0 0 1 9.352 7.301L60.719 55H59c0-4.411-3.589-8-8-8s-8 3.589-8 8zm42 6c-3.309 0-6-2.691-6-6s2.691-6 6-6 6 2.691 6 6-2.691 6-6 6z" fill="#ffffff" data-original="#000000" class="" opacity="1"></path></g></svg>