<svg xmlns="http://www.w3.org/2000/svg" version="1.1" xmlns:xlink="http://www.w3.org/1999/xlink" xmlns:svgjs="http://svgjs.com/svgjs" width="512" height="512" x="0" y="0" viewBox="0 0 512 512" style="enable-background:new 0 0 512 512" xml:space="preserve" class=""><g><path d="M216 152h16v40h-16zM280 152h16v40h-16zM248 152h16v40h-16zM216 216h16v40h-16zM280 216h16v40h-16zM248 216h16v40h-16zM216 280h16v40h-16zM280 280h16v40h-16zM248 280h16v40h-16zM216 344h16v40h-16zM280 344h16v40h-16zM248 344h16v40h-16zM491.765 80.941l-120-64A7.994 7.994 0 0 0 368 16h-8a8 8 0 0 0-8 8v96h16V33.066L480 92.8V384h16V88a7.998 7.998 0 0 0-4.235-7.059zM480 480h-40v16h48a8 8 0 0 0 8-8v-88h-16z" fill="#ffffff" data-original="#000000" class="" opacity="1"></path><path d="m420.295 177.251-88-56A7.994 7.994 0 0 0 328 120h-1.754L311.76 62.06A7.998 7.998 0 0 0 304 56h-40V16h-16v40h-40a7.998 7.998 0 0 0-7.76 6.06L185.753 120H184a7.994 7.994 0 0 0-4.295 1.251l-88 56A7.998 7.998 0 0 0 88 184v304a8 8 0 0 0 8 8h320a8 8 0 0 0 8-8V184a7.998 7.998 0 0 0-3.705-6.749zM214.246 72h83.508l12 48H288V88h-16v32h-32V88h-16v32h-21.754zM104 188.392l80-50.91V480h-32v-40h-16v40h-32zM200 136h112v344h-16v-72a8 8 0 0 0-8-8h-64a8 8 0 0 0-8 8v72h-16zm32 280h16v64h-16zm32 64v-64h16v64zm144 0h-32v-40h-16v40h-32V137.482l80 50.91zM440 224h24v16h-24zM440 264h24v16h-24zM440 304h24v16h-24zM440 344h24v16h-24zM440 384h24v16h-24zM440 424h24v16h-24z" fill="#ffffff" data-original="#000000" class="" opacity="1"></path><path d="M376 384h16v40h-16zM344 384h16v40h-16zM376 320h16v40h-16zM344 320h16v40h-16zM376 256h16v40h-16zM344 256h16v40h-16zM376 192h16v40h-16zM344 192h16v40h-16zM440 184h24v16h-24zM408 144h56v16h-56zM384 104h80v16h-80zM32 92.8l112-59.734V120h16V24a8 8 0 0 0-8-8h-8a7.994 7.994 0 0 0-3.765.941l-120 64A7.998 7.998 0 0 0 16 88v56h16zM32 160H16v328a8 8 0 0 0 8 8h48v-16H32zM48 224h24v16H48zM48 264h24v16H48z" fill="#ffffff" data-original="#000000" class="" opacity="1"></path><path d="M48 304h24v16H48zM48 344h24v16H48zM48 384h24v16H48zM48 424h24v16H48zM120 384h16v40h-16zM152 384h16v40h-16zM120 320h16v40h-16zM152 320h16v40h-16zM120 256h16v40h-16zM152 256h16v40h-16zM120 192h16v40h-16zM152 192h16v40h-16zM48 184h24v16H48zM48 144h56v16H48zM48 104h80v16H48z" fill="#ffffff" data-original="#000000" class="" opacity="1"></path></g></svg>