<svg xmlns="http://www.w3.org/2000/svg" version="1.1" xmlns:xlink="http://www.w3.org/1999/xlink" xmlns:svgjs="http://svgjs.com/svgjs" width="512" height="512" x="0" y="0" viewBox="0 0 609.731 609.731" style="enable-background:new 0 0 512 512" xml:space="preserve" class=""><g><path d="M264.269 335.054c2.269 0 4.535-.177 6.777-.528 19.484-3.24 33.791-20.058 33.865-39.809v-24.558a24.751 24.751 0 0 0-18.37-23.542 84.763 84.763 0 0 0-44.554 0 24.74 24.74 0 0 0-18.36 23.542v26.286a37.862 37.862 0 0 0 13.493 28.694 41.668 41.668 0 0 0 27.149 9.915zm-20.321-64.896a4.4 4.4 0 0 1 3.475-3.963 64.007 64.007 0 0 1 33.693 0 4.4 4.4 0 0 1 3.475 3.963v24.558c-.009 9.769-7.069 18.105-16.704 19.722a21.538 21.538 0 0 1-17.558-4.735 17.367 17.367 0 0 1-6.381-13.26z" fill="#ffffff" data-original="#000000" opacity="1" class=""></path><path d="m585.203 132.755-30.035-6.025-20.535-34.211a40.796 40.796 0 0 0-30.157-19.458l-8.017-.742a189.92 189.92 0 0 0-15.576-58.932A22.253 22.253 0 0 0 459.485.056a23.077 23.077 0 0 0-20.91 15.456L399.7 139.807c-12.371 37.424-47.356 62.688-86.772 62.661H154.107a111.355 111.355 0 0 0-62.935 19.742 38.61 38.61 0 0 1-29.791-33.266 49.153 49.153 0 0 1 3.19-24.05c4.308-10.568.463-22.706-9.145-28.866-9.094-6.232-21.362-4.964-28.988 2.997a91.445 91.445 0 0 0 19.499 143.631 109.947 109.947 0 0 0-5.202 33.398 161.632 161.632 0 0 0 13.951 57.916l2.54 6.726c11.258 30.218-1.616 56.016-17.273 79.446a40.865 40.865 0 0 0-5.436 33.053L57.48 586.46c3.343 13.664 15.602 23.265 29.669 23.237h27.332c13.684-.04 25.324-9.988 27.496-23.499s-5.765-26.605-18.747-30.931l-11.37-3.78-.152-57.448c7.681-3.932 45.245-25.534 67.802-81.915 51.23 21.866 111.615 24.558 183.837 24.843a630.807 630.807 0 0 1 2.53 71.125v60.964c0 22.446 18.196 40.643 40.643 40.643h33.093c13.661-.016 25.298-9.928 27.487-23.412s-5.714-26.569-18.668-30.906L437 551.567v-66.989a204.318 204.318 0 0 1 35.562-111.625 113.832 113.832 0 0 0 14.967-35.115 386.889 386.889 0 0 1 46.282-114.246h45.438c16.835 0 30.482-13.647 30.482-30.482v-30.482c-.062-14.513-10.305-26.988-24.528-29.873zm-229.488 81.397v111.046c0 16.835-13.647 30.482-30.482 30.482H203.305a30.038 30.038 0 0 1-14.001-3.566 9.718 9.718 0 0 0-2.764-1.504 30.481 30.481 0 0 1-13.717-25.412V222.789h140.105a111.652 111.652 0 0 0 42.787-8.637zM284.59 414.083c-14.113-1.087-27.688-2.611-40.643-4.826v-33.256h40.643zm-93.986-39.88a50.353 50.353 0 0 0 12.701 1.798h20.321v29.029a229.912 229.912 0 0 1-37.594-12.548 240.89 240.89 0 0 0 4.562-18.279zM21.836 217.729a70.811 70.811 0 0 1 19.102-64.358 2.336 2.336 0 0 1 3.394-.315 3.383 3.383 0 0 1 1.392 4.308 69.09 69.09 0 0 0-4.521 33.906 60.252 60.252 0 0 0 32.179 46.048 116.821 116.821 0 0 0-19.437 26.479 71.003 71.003 0 0 1-32.118-46.119zM102.4 476.023a20.22 20.22 0 0 0-10.862 18.025v57.438a20.555 20.555 0 0 0 13.9 19.305l11.39 3.729a7.671 7.671 0 0 1 5.192 7.285 7.538 7.538 0 0 1-7.519 7.549H87.148a10.313 10.313 0 0 1-9.947-7.753l-23.034-93.478a20.696 20.696 0 0 1 2.723-16.724c17.7-26.529 33.855-58.932 19.356-97.766l-2.581-6.838a144.2 144.2 0 0 1-12.609-50.742c1.235-50.279 41.199-91.012 91.446-93.204v102.348a50.517 50.517 0 0 0 19.305 39.535 218.69 218.69 0 0 1-7.641 30.33c-19.793 58.027-57.489 78.715-61.777 80.909zM589.41 193.11c0 5.612-4.549 10.161-10.161 10.161h-71.125c-11.223 0-20.321-9.098-20.321-20.321 0-5.612-4.549-10.161-10.161-10.161s-10.161 4.549-10.161 10.161c0 22.446 18.196 40.643 40.643 40.643h1.88a429.447 429.447 0 0 0-42.218 109.298 93.478 93.478 0 0 1-12.193 28.877 224.45 224.45 0 0 0-38.915 122.812v66.989a20.32 20.32 0 0 0 13.9 19.305l11.421 3.81a7.56 7.56 0 0 1-2.398 14.692h-33.083c-11.223 0-20.321-9.098-20.321-20.321V508.09a565.21 565.21 0 0 0-3.861-82.748 267.209 267.209 0 0 0-6.655-32.026c-1.476-5.415-7.062-8.609-12.477-7.133s-8.609 7.062-7.133 12.477c1.626 5.934 2.936 11.898 4.064 17.923-19.305-.091-37.716-.447-55.264-1.27v-39.312h20.321c28.044-.034 50.77-22.759 50.803-50.803v-122.04a111.626 111.626 0 0 0 43.02-57.133l38.773-123.899a2.5 2.5 0 0 1 2.388-1.748c2.032-.102 2.032 1.016 2.235 1.422a174.814 174.814 0 0 1 14.448 59.074c.025.423.076.843.152 1.26a1.938 1.938 0 0 0 0 .264c.406 5.934.63 12.071.63 18.249 0 5.612 4.549 10.161 10.161 10.161s10.161-4.549 10.161-10.161c0-2.632-.213-5.182-.284-7.793l4.654.427a20.251 20.251 0 0 1 14.865 9.673l22.861 38.102a10.16 10.16 0 0 0 6.716 4.735l34.414 6.909a10.16 10.16 0 0 1 8.22 9.927v30.483z" fill="#ffffff" data-original="#000000" opacity="1" class=""></path></g></svg>