<svg xmlns="http://www.w3.org/2000/svg" version="1.1" xmlns:xlink="http://www.w3.org/1999/xlink" xmlns:svgjs="http://svgjs.com/svgjs" width="512" height="512" x="0" y="0" viewBox="0 0 236.271 236.271" style="enable-background:new 0 0 512 512" xml:space="preserve" class=""><g><path d="M118.136 5.265C52.996 5.265 0 49.399 0 103.647c0 52.985 46.003 95.193 107.008 98.178 4.137.189 7.655-2.987 7.858-7.124a7.501 7.501 0 0 0-7.125-7.858C54.87 184.256 15 148.49 15 103.647c0-45.977 46.267-83.383 103.136-83.383s103.136 37.405 103.136 83.383c0 42.787-54.628 89.229-108.59 112.994a7.499 7.499 0 0 0-3.841 9.886 7.5 7.5 0 0 0 9.887 3.841c28.936-12.743 57.466-31.556 78.277-51.616 25.689-24.764 39.268-50.734 39.268-75.105-.002-54.248-52.997-98.382-118.137-98.382z" fill="#8c201e" data-original="#000000" opacity="1" class=""></path><path d="M60.082 79.668c-1.19-1.485-2.841-2.276-4.765-2.276-1.923 0-3.564.806-4.747 2.331-1.084 1.409-1.609 3.338-1.609 5.902v39.135c0 2.742.563 4.741 1.723 6.111 1.232 1.457 3.14 2.196 5.67 2.196h21.267c2.016 0 3.609-.595 4.735-1.77 1.114-1.134 1.687-2.626 1.687-4.416 0-1.732-.587-3.263-1.698-4.427-1.119-1.21-2.715-1.835-4.725-1.835H61.758V85.624c0-2.618-.549-4.566-1.676-5.956zM93.756 77.392c-1.904 0-3.539.803-4.729 2.324-1.083 1.386-1.633 3.374-1.633 5.909v40.041c0 2.584.547 4.528 1.671 5.941 1.181 1.52 2.808 2.331 4.69 2.331 1.922 0 3.575-.799 4.778-2.312 1.114-1.413 1.677-3.417 1.677-5.961V85.624c0-2.561-.567-4.563-1.685-5.951-1.211-1.494-2.859-2.281-4.769-2.281zM119.625 103.962l12.767 22.89.03.053c.301.503.603 1.001.902 1.493l.537.886c.602.973 1.195 1.749 1.824 2.392.744.768 1.535 1.327 2.411 1.704a7.567 7.567 0 0 0 2.93.559c2.518 0 6.742-1.129 6.742-8.694v-39.96c0-2.431-.483-4.268-1.479-5.615-1.111-1.492-2.703-2.277-4.608-2.277-1.858 0-3.424.786-4.53 2.272-.997 1.375-1.475 3.207-1.475 5.621v22.619l-13.188-23.328-.678-1.245-.687-1.262c-.559-.988-1.057-1.729-1.54-2.297a6.75 6.75 0 0 0-2.069-1.7c-.833-.454-1.811-.68-2.969-.68-1.463 0-2.821.469-4.034 1.395a7.356 7.356 0 0 0-2.539 3.444l-.018.053c-.384 1.161-.571 2.651-.571 4.555v39.213c0 2.32.502 4.189 1.491 5.556l.03.04c1.144 1.499 2.733 2.29 4.597 2.29 1.835 0 3.409-.783 4.551-2.265 1.044-1.361 1.572-3.251 1.572-5.622v-22.09zM185.284 90.181c1.958 0 3.498-.572 4.575-1.7 1.046-1.1 1.575-2.538 1.575-4.276 0-1.726-.532-3.154-1.58-4.245-1.059-1.127-2.601-1.707-4.57-1.707h-23.262c-1.556 0-2.903.294-4.005.875-1.221.659-2.117 1.686-2.68 3.061-.478 1.162-.71 2.595-.71 4.378v38.193c0 2.745.57 4.746 1.743 6.118 1.215 1.448 3.121 2.189 5.653 2.189h23.941c1.96 0 3.507-.591 4.601-1.757 1.051-1.136 1.579-2.575 1.579-4.288 0-1.769-.528-3.237-1.568-4.363-1.122-1.18-2.667-1.767-4.611-1.767h-18.524v-10.467h16.262c1.962 0 3.482-.586 4.52-1.743.989-1.111 1.488-2.509 1.488-4.162 0-1.686-.518-3.086-1.538-4.163-1.013-1.109-2.525-1.685-4.469-1.685h-16.262v-8.493h17.842z" fill="#8c201e" data-original="#000000" opacity="1" class=""></path></g></svg>