<svg xmlns="http://www.w3.org/2000/svg" xmlns:xlink="http://www.w3.org/1999/xlink" viewBox="0 0 266.53 320.27"><defs><style>.cls-1{fill:url(#linear-gradient);}.cls-2{fill:#edd97d;}.cls-3{fill:#bd9331;}.cls-4{fill:url(#linear-gradient-2);}.cls-5{fill:url(#linear-gradient-3);}.cls-6{fill:url(#linear-gradient-4);}.cls-7{fill:#efdd7f;}.cls-8{fill:#34331a;}.cls-9{fill:#e5ce76;}</style><linearGradient id="linear-gradient" x1="22.68" y1="250.14" x2="243.69" y2="250.14" gradientUnits="userSpaceOnUse"><stop offset="0" stop-color="#010101"/><stop offset="0.17" stop-color="#0b0b0b"/><stop offset="0.5" stop-color="#1a1a1a"/><stop offset="1" stop-color="#010101"/></linearGradient><linearGradient id="linear-gradient-2" x1="29.25" y1="84.08" x2="237.12" y2="84.08" gradientUnits="userSpaceOnUse"><stop offset="0.01" stop-color="#471615"/><stop offset="0.55" stop-color="#92221e"/><stop offset="1" stop-color="#471615"/></linearGradient><linearGradient id="linear-gradient-3" y1="179.41" x2="266.53" y2="179.41" gradientUnits="userSpaceOnUse"><stop offset="0" stop-color="#e8e2d3"/><stop offset="0.12" stop-color="#e4decf"/><stop offset="0.26" stop-color="#d7d1c2"/><stop offset="0.39" stop-color="#c2bcae"/><stop offset="0.52" stop-color="#a7a194"/><stop offset="0.64" stop-color="#c3bdaf"/><stop offset="0.76" stop-color="#d7d1c3"/><stop offset="0.88" stop-color="#e4decf"/><stop offset="1" stop-color="#e8e2d3"/></linearGradient><linearGradient id="linear-gradient-4" y1="179.41" x2="266.53" y2="179.41" gradientUnits="userSpaceOnUse"><stop offset="0" stop-color="#9d6327"/><stop offset="0.25" stop-color="#e8d079"/><stop offset="0.53" stop-color="#fcf6b7"/><stop offset="0.73" stop-color="#e8d079"/><stop offset="0.94" stop-color="#af7e3b"/><stop offset="1" stop-color="#9d6327"/></linearGradient></defs><g id="Layer_2" data-name="Layer 2"><g id="Layer_1-2" data-name="Layer 1"><path class="cls-1" d="M133.18,320.27c55.26-25.44,90.84-64.42,110.51-110.08-15.41-17-75.06-30.17-110.51-30.17s-95.1,13.21-110.5,30.17C42.35,255.85,77.93,294.83,133.18,320.27Z"/><path class="cls-2" d="M240.13,210.84l-.31.68c-20.75,46.54-56.49,81.94-106.22,105.23l-.42.2h0l-.42-.2C83,293.46,47.3,258.06,26.53,211.52l-.3-.68,2.44.54h0C49.22,257,84.38,291.76,133.18,314.74c48.81-23,84-57.74,104.51-103.36Z"/><path class="cls-3" d="M159.38,0s-2.9,14.34,11.46,23.31c9.54,6,22.45-1.73,28.93-6.36l37,22c-34,59.56-24.82,114.57,29.58,140.51C251.19,167,162.46,159.83,133.18,149,103.9,159.83,15.17,167,0,179.42,54.4,153.48,63.62,98.47,29.59,38.91l37-22C73.08,21.58,86,29.28,95.51,23.31,109.89,14.34,107,0,107,0Z"/><path class="cls-2" d="M244.87,168.39c-15.05-4.42-35.05-8.8-54.55-13.09-22.94-5-44.59-3.77-56.45-8.14l-.69-.26-.69.26c-11.85,4.37-33.51,3.12-56.44,8.14C56.54,159.59,36.54,164,21.5,168.39,57,139.67,61.38,91.74,32.29,39.63L66.5,19.34c7.78,5.34,15,8.15,21.09,8.15a16.73,16.73,0,0,0,9-2.48c11.75-7.34,12.78-18.23,12.6-23h48c-.18,4.78.84,15.67,12.59,23a16.76,16.76,0,0,0,9,2.48c6.14,0,13.23-2.74,21.09-8.15l34.21,20.29c-29.09,52.11-24.71,100,10.8,128.76Z"/><path class="cls-4" d="M237.12,164.15c-13.77-3.65-30.27-7.27-46.32-10.79-22.92-5-44.51-3.76-56.23-8.08l-1.39-.5-1.38.5c-11.73,4.32-33.32,3.05-56.18,8.07-16.08,3.52-32.59,7.15-46.37,10.8C59.29,134.59,61.57,89.1,35,40.36L66.43,21.71c7.71,5.1,15,7.78,21.16,7.78a18.73,18.73,0,0,0,10-2.78c11.2-7,13.31-17.09,13.53-22.7h44c.23,5.61,2.35,15.71,13.54,22.7a18.73,18.73,0,0,0,10.05,2.78c6.26,0,13.38-2.62,21.16-7.78l31.45,18.65c-26.59,48.75-24.31,94.23,5.74,123.79Z"/><path class="cls-5" d="M133.35,143h-.17C79.12,143,21.57,157.83,0,179.42l14.71,36.37c20-16.13,56.4-32.7,118.47-32.7h.17c62.07,0,98.43,16.57,118.47,32.7l14.71-36.37C245,157.83,187.41,143,133.35,143Z"/><path class="cls-6" d="M133.35,143h-.17C79.12,143,21.57,157.83,0,179.42l14.71,36.37c20-16.13,56.4-32.7,118.47-32.7h.17c62.07,0,98.43,16.57,118.47,32.7l14.71-36.37C245,157.83,187.41,143,133.35,143Z"/><path class="cls-7" d="M124.93,81.06a.26.26,0,0,0-.32-.4,31.08,31.08,0,0,0-7.56,6c-5,5.52-11.54,9.81-15.29,11.06-1.21.4-2.46.68-3.75,1a.26.26,0,0,0-.07.48c6.6,3.49,13.47,5.77,21.06,5.87a.26.26,0,0,1,.08.51,27.87,27.87,0,0,0-8.8,5,.26.26,0,0,0,.18.46c4.58-.27,8.71,1.37,12.94,2.52a63.48,63.48,0,0,0,10,2.23,22.77,22.77,0,0,0,4.91-.18.26.26,0,0,0,.2-.36c-.72-1.57-1.48-3.14-2.14-4.74a23.42,23.42,0,0,1-2.06-10.24.24.24,0,0,0-.46-.12,25.16,25.16,0,0,0-2.78,9c-2.61-.14-7.25-.4-9.14-.53a.26.26,0,0,1-.11-.48,23.71,23.71,0,0,0,5.09-4.22.23.23,0,0,0,.07-.22c-.1-.53-.48-2.48-.63-3.64a.26.26,0,0,0-.29-.22,31.25,31.25,0,0,1-7.08,0,63.93,63.93,0,0,1-8.47-1.33.26.26,0,0,1,0-.51c4.1-1,7.26-3.46,10.33-6.07,2.9-2.46,7.53-7.13,9.6-8.9a.26.26,0,0,0-.18-.46,17.26,17.26,0,0,0-7,1.78.26.26,0,0,1-.34-.37C123.39,83.26,124.18,82,124.93,81.06Z"/><path class="cls-7" d="M118,61.65a.26.26,0,0,0,.09-.46,7.86,7.86,0,0,0-3-1.36,8,8,0,0,0-8.41,3.34,15.71,15.71,0,0,0-2.36,5.7,59.32,59.32,0,0,1-2.09,8.25c-1.21,3.25-5,6.83-6.18,7.92a.26.26,0,0,0,.13.45,8,8,0,0,0,6.83-2.4.26.26,0,0,1,.44.2,18.3,18.3,0,0,1-5.84,12.27.26.26,0,0,0,.23.44A29.59,29.59,0,0,0,113,87.09a73.89,73.89,0,0,1,6-6.49c2.78-2.36,7.79-4.44,9.69-5.18a.26.26,0,0,0,0-.49c-6.42-1.52-12.05-.2-16.76,4.52a.26.26,0,0,1-.43-.26c2-5.87,4.75-11.15,9.54-15.16a.26.26,0,0,0-.24-.45c-4.21,1.27-7.27,4.15-10,7.49a.25.25,0,0,1-.45-.18A10.36,10.36,0,0,1,118,61.65Z"/><path class="cls-7" d="M133,70.74a.28.28,0,0,0-.18-.5c-.88.06-1.77.09-2.66.09-2.25,0-4.19-.4-6.44-.38-6.33.08-9.3,3.9-9.94,6.82a12,12,0,0,1,10.32-4.23c1.51.17,6.49,1.33,7.49,1.53a18.48,18.48,0,0,1,8.14-2.15.24.24,0,0,0,.07-.48,27.44,27.44,0,0,0-7.43-.14C132.33,71.23,132.56,71,133,70.74Z"/><path class="cls-7" d="M166.88,67.55l5-.35a.24.24,0,0,0,.05-.47c-3.35-1-9.75-3.26-9.93-3.36a12.19,12.19,0,0,0-5.72-1.44A32.26,32.26,0,0,0,148.35,63a34.69,34.69,0,0,1-8,1.47.25.25,0,0,0,0,.5,50.09,50.09,0,0,0,5.6,1,31.52,31.52,0,0,0,6.14.2.26.26,0,0,1,.12.49h0a.26.26,0,0,0,.07.49,21.68,21.68,0,0,1,4.08.83c1.38.52,2.73,1.14,4.1,1.66a19,19,0,0,0,5.14,1.07c.07,0,.6.08.81.07a9.28,9.28,0,0,1,1.49,0,.26.26,0,0,0,.26-.37,19.84,19.84,0,0,0-1.41-2.56A.24.24,0,0,1,166.88,67.55Z"/><path class="cls-7" d="M145.09,39.61a16.19,16.19,0,0,1,5,3.81.27.27,0,0,1-.2.43h-.39a36.11,36.11,0,0,0-18.92,5.52c-2.41,1.47-4.85,2.92-7.35,4.23-3.39,1.77-8.06,2.37-10.1,2.55a.26.26,0,0,0-.07.5c3.06,1.21,7.78,1.77,13.42-.44a.26.26,0,0,1,.23.46,22.36,22.36,0,0,1-7.44,2.58.26.26,0,0,0,0,.5,12.48,12.48,0,0,0,2.75.43,19.75,19.75,0,0,0,8.3-1.45c3.19-1.24,6.33-2.63,9.47-4A55.78,55.78,0,0,1,150.11,51a16.78,16.78,0,0,1,9.77.41,25.65,25.65,0,0,1,4.56,2.71.26.26,0,0,0,.39-.3,20.67,20.67,0,0,0-4.14-6.88,21.43,21.43,0,0,0-5.57-4.44,28.48,28.48,0,0,0-9.87-3.33A.26.26,0,0,0,145.09,39.61Z"/><path class="cls-7" d="M86.71,89.4a17.12,17.12,0,0,1,1.62-1.9.26.26,0,0,1,.44.25,6,6,0,0,0-.22.93c0,.11,0,.22,0,.32a28.15,28.15,0,0,0,12-15.53.26.26,0,0,0-.45-.24,37.79,37.79,0,0,1-5.17,5.41A28,28,0,0,1,83.1,84.78a43,43,0,0,1-8,.47.26.26,0,0,0-.16.46,20,20,0,0,0,9.15,3.93.25.25,0,0,1,.13.44A17.46,17.46,0,0,1,74.47,95a.25.25,0,0,0-.11.46c.5.35.94.67,1.41.94a16,16,0,0,0,5.21,2,21.56,21.56,0,0,0,1.83-2.95A51.73,51.73,0,0,1,86.71,89.4Z"/><path class="cls-7" d="M87.36,98a21.28,21.28,0,0,0,5.28-2.4,16.56,16.56,0,0,0,5.78-6.34.26.26,0,0,0-.36-.34c-3,1.93-6.28,1.64-9.69,1-.28,2-.55,4-.78,6C87.51,96.59,87.44,97.29,87.36,98Z"/><path class="cls-7" d="M107.51,125.38a.26.26,0,0,0,.46.17,26.53,26.53,0,0,1,6.42-5.66,32.12,32.12,0,0,1,7.57-3.5.26.26,0,0,0,0-.5,39.12,39.12,0,0,0-17.26-1.47.26.26,0,0,1-.27-.38c.62-1.19,1.17-2.35,1.83-3.44s1.4-2.11,2.12-3.14a.26.26,0,0,0-.2-.4c-7.08-.4-15.49-5.18-18-6.65a.25.25,0,0,0-.35.34c2.17,4.09,5.66,6.89,9.58,9.31a.27.27,0,0,1,.09.34,31,31,0,0,0-3.17,9.26.25.25,0,0,0,.38.27c3.81-2.09,7.88-2.17,12.11-2a.26.26,0,0,1,.23.36A19.2,19.2,0,0,0,107.51,125.38Z"/><path class="cls-7" d="M95.25,56.05a15.41,15.41,0,0,1,5.79-.18.26.26,0,0,1,.14.44c-.69.66-1.36,1.26-2,1.94-1.06,1.21-2,2.49-3.06,3.75a22.54,22.54,0,0,1-2.77,2.84.39.39,0,0,0,.42.66,7.31,7.31,0,0,0,.84-.42,42.2,42.2,0,0,0,6.68-5.47,16.46,16.46,0,0,1,5.45-3.51.26.26,0,0,1,.29.4,29.59,29.59,0,0,1-2.92,3.38.26.26,0,0,0,.3.41,12.07,12.07,0,0,0,1.43-.74c1.55-1,3-2.06,4.55-3.09a18.91,18.91,0,0,1,6.1-2.66,53.58,53.58,0,0,0,16-7.29,16.27,16.27,0,0,1,4.71-2.2.26.26,0,0,0,0-.5c-6.79-2.2-13.52.09-16.45,1.37a.26.26,0,0,0,.14.5,10,10,0,0,1,5,.57.25.25,0,0,1,0,.46A28.3,28.3,0,0,1,115,49.77a78.11,78.11,0,0,0-8.65,1.14,36.54,36.54,0,0,0-11.28,4.66A.26.26,0,0,0,95.25,56.05Z"/><path class="cls-7" d="M126.51,89.8c-3.3,2.8-7.05,5.89-11.13,7.6a.25.25,0,0,0,.1.49,38.49,38.49,0,0,0,10.33-1.3.27.27,0,0,0,.19-.23,33.51,33.51,0,0,1,.92-6.29A.26.26,0,0,0,126.51,89.8Z"/><path class="cls-7" d="M72.18,107.07a.26.26,0,0,0,.18.47A9.72,9.72,0,0,0,77,106c1.42-.89,2.77-1.91,4.16-2.91a.26.26,0,0,1,.41.24A21.55,21.55,0,0,1,75.9,116a.26.26,0,0,0,.32.4A21.36,21.36,0,0,0,86,104.82,32.88,32.88,0,0,0,87.36,98a14.07,14.07,0,0,1-6.38.36A44.68,44.68,0,0,1,72.18,107.07Z"/><path class="cls-7" d="M88.07,89.8l.3.07c0-.29.09-.58.13-.87l-.52.33A.26.26,0,0,0,88.07,89.8Z"/><path class="cls-7" d="M87.36,98a5.5,5.5,0,0,1,.55-2.12c1.12-1.89,2-3.74.46-6-.1,0-.07-.19-.17-.21s-.25,0-.06-.15.19-.4.36-.51c0-.1.23-.2.24-.31a10.81,10.81,0,0,1,.39-1c.08-.26-.52-.53-.79-.54-1.33-.05-1.16,1.6-1.63,2.28-1.37,2-3.5,3.77-4.58,5.9-.52,1-.46,2.11-1.15,3C83.13,98.73,84.39,99.66,87.36,98Z"/><path class="cls-7" d="M148.62,130a15.91,15.91,0,0,0,4.92-17.62.33.33,0,0,0-.64.09,49.86,49.86,0,0,0,.27,6.3.32.32,0,0,1-.51.29,19.39,19.39,0,0,1-3.07-2.54,13.13,13.13,0,0,1-2-3,.32.32,0,0,0-.61.16,25.91,25.91,0,0,1-1.12,9,.33.33,0,0,0,.44.4,14.47,14.47,0,0,0,2.65-1.45l.49-.34s0,0,.13,0a9.84,9.84,0,0,1-1.44,8.23A.33.33,0,0,0,148.62,130Z"/><path class="cls-7" d="M140.12,122a.25.25,0,0,0,.2-.27,18.13,18.13,0,0,0-.75-3.87.25.25,0,0,0-.33-.16q-1.12.42-2.31.75c-3.24.9-9.29.67-12.15.5a.26.26,0,0,0-.11.5,34.61,34.61,0,0,0,10.58,3A14.56,14.56,0,0,0,140.12,122Z"/><path class="cls-7" d="M173.78,60.55c1.85,1.46,3.85,2.75,5.78,4.13l.6.44a.26.26,0,0,0,.41-.26,13.67,13.67,0,0,0-3.1-6.28c-.78-.88-1.58-1.74-2.36-2.61a18.17,18.17,0,0,1-4.17-7.17.26.26,0,0,0-.49,0A10.6,10.6,0,0,0,173.78,60.55Z"/><path class="cls-7" d="M135.56,125.18a.26.26,0,0,0,0-.51c-3.1-.43-11.47-1.78-14.83-4.12a1.18,1.18,0,0,0-1.18-.08,19.52,19.52,0,0,0-7.45,4.5c-.25.25-.49.51-.73.78a.26.26,0,0,0,.31.4,25.12,25.12,0,0,1,4.21-1.71c.83-.21,1.68-.33,2.52-.47a5,5,0,0,1,2.56.29A25.62,25.62,0,0,0,135.56,125.18Z"/><path class="cls-7" d="M143.6,124.46a19.86,19.86,0,0,1-8.09,3.48,26.52,26.52,0,0,1-7.49.34.26.26,0,0,0-.11.5,23.84,23.84,0,0,0,8.35,1.6.25.25,0,0,1,.21.41c-.53.7-1,1.35-1.48,2a.26.26,0,0,0,.26.41c2.9-.57,7.31-4.75,8.74-8.4A.25.25,0,0,0,143.6,124.46Z"/><path class="cls-7" d="M152.86,128.06a10.68,10.68,0,0,0,3.71-3.52.2.2,0,0,1,.23-.07,9.17,9.17,0,0,0,4.31.55.2.2,0,0,0,.06-.38,13.74,13.74,0,0,1-5.22-5,.2.2,0,0,0-.37.11,12.83,12.83,0,0,1-3,8A.2.2,0,0,0,152.86,128.06Z"/><path class="cls-7" d="M204.18,93.53c-1.05.33-2.92-.7-4-1.34a.25.25,0,0,0-.36.3,6.8,6.8,0,0,1-.18,5.62c-1.62,3.09,3.83,1.94,4.09.51A2.65,2.65,0,0,1,205,97a2.72,2.72,0,0,0,1-2.88.22.22,0,0,0-.09-.14A2.07,2.07,0,0,0,204.18,93.53Z"/><path class="cls-7" d="M170.81,110.57c0-.19-.05-.38-.07-.56a2.67,2.67,0,0,0,0,.41C170.8,110.52,170.81,110.57,170.81,110.57Z"/><path class="cls-7" d="M148.39,54.68c-2.81,1.06-5.52,2.4-8.23,3.69A44,44,0,0,1,130.93,62c-1,.21-1.93.35-3,.49a.26.26,0,0,0,0,.52c.75.11,1.48.22,2.2.3a31.36,31.36,0,0,0,11.62-.73c2.87-.76,5.71-1.63,8.58-2.38a15.92,15.92,0,0,1,7.63-.46,16.78,16.78,0,0,1,4.14,1.49,62.42,62.42,0,0,0,10.55,4.3,20.52,20.52,0,0,1,6.3,3.22.26.26,0,0,1-.18.46l-9.49-.74a.26.26,0,0,0-.16.47,30.09,30.09,0,0,1,4.43,3.81.26.26,0,0,1-.24.43c-.77-.18-1.53-.37-2.3-.48s-1.39-.23-2.1-.32c-1.45-.19-2.91-.06-4.36-.25A18.51,18.51,0,0,1,160.32,71c-1.5-.57-3-1.24-4.48-1.81a31.86,31.86,0,0,0-5-1.3s-6.14-1-12.5-1.91c-5.41-.74-12.51-1.47-16.6.49a.26.26,0,0,0,.07.48c2.73.5,12.44,2.22,16,1.78a.26.26,0,0,1,.25.39l-.45.71a.26.26,0,0,0,.22.4,25.62,25.62,0,0,1,7.68,1.15,6.64,6.64,0,0,1,3.6,2.24.26.26,0,0,1-.32.38,15.29,15.29,0,0,0-10.87-.41,27,27,0,0,0-5.81,2.69,17.56,17.56,0,0,0-3.44,3c-.62.66-1.16,1.3-1.58,1.81a.26.26,0,0,0,.32.4A18.06,18.06,0,0,1,135,79.83a11.17,11.17,0,0,1,5.58,1,.26.26,0,0,1-.11.48,14.65,14.65,0,0,0-2,.34A15.7,15.7,0,0,0,131,86.22a13.71,13.71,0,0,0-3,8.26,26.59,26.59,0,0,0,.16,4.88,44.63,44.63,0,0,0,1.42,6.76.26.26,0,0,0,.5,0c.88-3,4-12.58,7.94-12.38a.26.26,0,0,1,.24.33c-.48,1.83-.94,3.35-1.25,4.89a14.67,14.67,0,0,0-.16,4.75c.63,4.93,3.41,9.23,5.16,13.8a43.68,43.68,0,0,1,1.2,5.36.26.26,0,0,0,.48.08,19,19,0,0,0,1.78-12.76,8.35,8.35,0,0,1,1.13-5.4.26.26,0,0,1,.48.14,21.61,21.61,0,0,0,.38,4.39,14.64,14.64,0,0,0,1.22,3.61,14.27,14.27,0,0,0,2.72,3.72.26.26,0,0,0,.44-.23c-.15-.94-.38-1.69-.44-2.37-.31-3.6.46-8.8,4.18-10.48a6.15,6.15,0,0,1,6.1.66,8.79,8.79,0,0,1,3.2,4,4,4,0,0,1-2.11,5.25,7.85,7.85,0,0,1-4.81.1.31.31,0,0,0-.32.49,10.65,10.65,0,0,0,4.06,3.36,11.24,11.24,0,0,0,4.21,1h0l6.4-.07a1.1,1.1,0,0,1,1.1,1.23,15.1,15.1,0,0,1-1.14,4.19,9.41,9.41,0,0,1-.84,1.64,12.74,12.74,0,0,1-2.92,3.35c-.54.49-1.07.93-1.54,1.3a.44.44,0,0,0,.38.77,23.6,23.6,0,0,0,10.31-5.3c4-3.33,7.53-13.67,7.58-13.79a.32.32,0,0,0-.49-.36,7.34,7.34,0,0,1-6.81,1.58,10.8,10.8,0,0,1-1.6-3,8,8,0,0,1,4.76-9.51,15.2,15.2,0,0,1,9.68-.86,3.74,3.74,0,0,1,1.17.51c.91,2.11-1.24,5-2.27,6.23a.31.31,0,0,0,.26.51c1.78-.13,6.31-.83,8.91-4.49h0a.62.62,0,0,0-.1-.86c-.71-.54-.63-1.55.14-3.7a10.15,10.15,0,0,0,0-6.32.63.63,0,0,1,.93-.71c1.47.92,3.56,2,4.64,1.7a1.55,1.55,0,0,1,.35-.07.62.62,0,0,0,.48-1,66.56,66.56,0,0,0-4.49-5.91c-.95-1.07-8.68-4.61-9.23-5-1.1-.73-.36-2.19-.21-3.2A3.78,3.78,0,0,0,191.1,75c-.67-1.27-2.6-1.58-3.82-2-1.06-.39-2.13-.74-3.18-1.17a3.65,3.65,0,0,1-.43-.23.31.31,0,0,1-.09-.11,14.77,14.77,0,0,0-7-7.37,38.13,38.13,0,0,1-4-2.32,10.52,10.52,0,0,1-4.15-6.5c-.23-1-.4-1.93-.59-2.95a.26.26,0,0,0-.48-.09,8.79,8.79,0,0,0-1.36,5.79.26.26,0,0,1-.41.24c-.85-.63-1.67-1.24-2.52-1.81A15.49,15.49,0,0,0,148.39,54.68ZM170.74,110c0,.18,0,.37.07.56h0s0,0,0-.15a2.67,2.67,0,0,1,0-.41c-1.67-12.25-12.36-12.68-12.36-12.68,11.6-8.52,31.13-3.78,31.13-3.78C170.31,94.15,170.47,107.14,170.74,110Zm18-20.67.68.37.92.5,1,.53a.22.22,0,0,1,.1.09.42.42,0,0,1,0,.1.27.27,0,0,1-.05.18s0,0,0,0a.24.24,0,0,1-.27.07c-.53-.17-1.05-.32-1.56-.47l-.32-.1-.79-.22-.82-.21-.92-.23c-.87-.2-1.7-.37-2.53-.51l-.49-.08-1-.14c-.65-.08-1.3-.15-2-.19-.81-.06-1.63-.09-2.46-.1h0c-1.17,0-2.38,0-3.65.13a37.69,37.69,0,0,0-4.17.54l-.59.12c-.77.16-1.54.34-2.3.55q-.59.15-1.14.33c-.57.17-1.13.35-1.69.55l-1.1.41c-.56.21-1.1.44-1.65.67l-1.08.49q-2.16,1-4.23,2.22a9.84,9.84,0,0,0-1.58,1.18c-.82.75-1.59,1.6-2.43,2.39a.3.3,0,0,1-.17.08.26.26,0,0,1-.25-.17,1.9,1.9,0,0,1-.09-.29c-.38-2.68-1.84-3.77-4-2.92a5.82,5.82,0,0,0-.81.38c-.24.13-.56.35-.92.6l-.9.67-.23.18-1.18.93-.07,0H144a.22.22,0,0,1-.14,0,.23.23,0,0,1-.13-.25,15.22,15.22,0,0,1,.75-3.51,10.85,10.85,0,0,1,1-1.74,14.3,14.3,0,0,1,1.66-1.9,19.17,19.17,0,0,1,1.54-1.32c.39-.31.8-.6,1.21-.88a22.46,22.46,0,0,1,6.19-2.73l1.37-.39,1.31-.35.27-.07.83-.22.83-.22.54-.14.52-.13,2.16-.55.09,0a.27.27,0,0,0,.11-.2.27.27,0,0,0-.18-.26l-1.29-.43-3.91-1.3-4-1.33-1.35-.45a.2.2,0,0,1-.14-.11.14.14,0,0,1,0-.09.11.11,0,0,1,0-.08.19.19,0,0,1,0-.08s0,0,0,0a.23.23,0,0,1,.2-.1c.55,0,1.25,0,2.08,0h1.06l1.47,0,1.62.09,1,.07.71.06,1.46.15.75.1.77.1.77.12,1.18.19,1.19.23.8.17,1.2.28.4.1,1.2.33.8.24.79.26.79.28c.52.19,1,.39,1.55.6l.89.39,1.45.67c.17.08.34.15.51.24l1.06.5,1.08.54,1.67.84,1.13.57,1.12.59,1.12.58,1.09.57ZM179.58,76a.24.24,0,0,1,.11-.06h.08a.19.19,0,0,1,.12,0l4.1,2.48L186.54,80a.26.26,0,0,1,.13.24c0,.64-.06,1.12-.06,1.62,0,.3,0,.61,0,1,0,0,0,0,0,.07a.26.26,0,0,1-.36.15A13.76,13.76,0,0,1,183,80.94l-.5-.47c-.32-.32-.62-.63-.89-1l-.2-.24-.37-.47-.17-.22-.31-.45-.14-.22a4.94,4.94,0,0,1-.27-.42c-.08-.13-.16-.26-.23-.39s-.14-.24-.2-.36-.11-.22-.16-.32a1,1,0,0,1-.07-.15A.24.24,0,0,1,179.58,76Z"/><path class="cls-7" d="M179,84.28l1.08.54Z"/><path class="cls-7" d="M181.77,85.66l1.13.57Z"/><path class="cls-7" d="M153.49,79.11c.55,0,1.25,0,2.08,0-.83,0-1.53,0-2.08,0a.23.23,0,0,0-.2.1A.23.23,0,0,1,153.49,79.11Z"/><path class="cls-7" d="M187.66,90.21l-.92-.23Z"/><path class="cls-7" d="M158.1,79.11l1.62.09Z"/><path class="cls-7" d="M188.78,89.34l.68.37Z"/><path class="cls-7" d="M155.83,79.06h0Z"/><path class="cls-7" d="M189.27,90.64l-.79-.22Z"/><path class="cls-7" d="M156.63,79.07l1.47,0Z"/><path class="cls-7" d="M153.25,79.33a.19.19,0,0,1,0-.08A.19.19,0,0,0,153.25,79.33Z"/><path class="cls-7" d="M159.05,84.88l.83-.22Z"/><path class="cls-7" d="M157.47,85.3l1.31-.35Z"/><path class="cls-7" d="M160.71,84.44l.54-.14Z"/><path class="cls-7" d="M159.88,84.66l.83-.22Z"/><path class="cls-7" d="M161.25,84.3l.52-.13Z"/><path class="cls-7" d="M178,83.78l1.06.5Z"/><path class="cls-7" d="M171.18,81.1l.8.24Z"/><path class="cls-7" d="M170,80.77l1.2.33Z"/><path class="cls-7" d="M160.75,79.27l.71.06Z"/><path class="cls-7" d="M172.77,81.6l.79.28Z"/><path class="cls-7" d="M176,82.87l1.45.67Z"/><path class="cls-7" d="M172,81.34l.79.26Z"/><path class="cls-7" d="M161.46,79.33l1.46.15Z"/><path class="cls-7" d="M168.38,80.39l1.2.28Z"/><path class="cls-7" d="M163.67,79.58l.77.1Z"/><path class="cls-7" d="M166.39,80l1.19.23Z"/><path class="cls-7" d="M165.21,79.8l1.18.19Z"/><path class="cls-7" d="M191.15,91.21c-.53-.17-1.05-.32-1.56-.47.51.15,1,.3,1.56.47a.24.24,0,0,0,.27-.07A.24.24,0,0,1,191.15,91.21Z"/><path class="cls-7" d="M191.45,90.83a.22.22,0,0,0-.1-.09l-1-.53,1,.53A.22.22,0,0,1,191.45,90.83Z"/><path class="cls-7" d="M191.44,91.11a.27.27,0,0,0,.05-.18A.27.27,0,0,1,191.44,91.11Z"/><path class="cls-7" d="M179.69,75.92h0Z"/><path class="cls-7" d="M186.67,80.22a.26.26,0,0,0-.13-.24L184,78.43,186.54,80A.26.26,0,0,1,186.67,80.22Z"/><path class="cls-7" d="M179.58,76a.24.24,0,0,1,.11-.06A.24.24,0,0,0,179.58,76Z"/><path class="cls-7" d="M170.81,110.57c0-.19-.05-.38-.07-.56,0,.18,0,.37.07.56Z"/><path class="cls-7" d="M171.37,125.43a17.27,17.27,0,0,1-2.92,3.35A12.74,12.74,0,0,0,171.37,125.43Z"/><path class="cls-7" d="M60.61,89.28c3.11-1.9,10.88-6.15,18.92-6.79,14.06-1.11,23-13.34,23.11-20.45a.31.31,0,0,0-.54-.21c-2.31,2.65-12.66,12.69-36.52,12a.31.31,0,0,0-.18.56,19.84,19.84,0,0,0,9,3.36.31.31,0,0,1,.07.6,31.3,31.3,0,0,0-14.29,10.5A.31.31,0,0,0,60.61,89.28Z"/><path class="cls-7" d="M72.18,71.85c12.8-1.17,21-8.3,22.5-10.32a50,50,0,0,1,3.24-3.87.27.27,0,0,0-.23-.45c-10.48,1.12-13.36,4.55-16.33,8.2-2.17,2.68-6.84,4.89-9.31,5.92A.27.27,0,0,0,72.18,71.85Z"/><path class="cls-8" d="M22.64,187.34c-.92-.94-2.06-1.94-3.53-1.2a2,2,0,0,0-.93,2.72c.56,1.11,1.62,1.33,3.48,1.32,2.07,0,4,.2,4.95,2.1s.11,4.37-2.4,5.63a7.54,7.54,0,0,1-1.88.63,8.59,8.59,0,0,1-1.2.14,22.2,22.2,0,0,1-2-2.66l.61-.55c.85.94,2.68,2.39,4.46,1.49a2,2,0,0,0,.92-2.93c-.58-1.15-1.8-1.37-3.48-1.4-1.95,0-3.9-.21-4.83-2s-.25-4.1,2.21-5.33a8.53,8.53,0,0,1,2.6-.76c.4.6.9,1.3,1.63,2.37Z"/><path class="cls-8" d="M35,190.47a4.51,4.51,0,0,1-2.29,3.31,4,4,0,0,1-5.5-2.26,5.25,5.25,0,0,1-.19-3.91,4.36,4.36,0,0,1,2.11-2.55h0a3.21,3.21,0,0,1,4.21,1.61c.18.4.21.67-.16.9s-2.47,1.41-4.38,2.37c1,2.08,2.67,2.55,4,2a3.25,3.25,0,0,0,1.66-1.77ZM28.51,189c.87-.4,1.68-.79,2.56-1.24.29-.14.36-.26.22-.56-.4-.94-1.33-1.59-2.15-1.22S28.07,187.52,28.51,189Z"/><path class="cls-8" d="M42.59,187.23a4.71,4.71,0,0,1-2.33,3.26,4.15,4.15,0,0,1-5.56-2.33,4.94,4.94,0,0,1,.36-4.39,5.91,5.91,0,0,1,2.48-2.36h0a3,3,0,0,1,1.8-.22.77.77,0,0,1,.6.53,1.1,1.1,0,0,1-.31,1.27.62.62,0,0,1-.47,0,3.05,3.05,0,0,0-2.2-.12c-1,.41-1.46,1.73-.66,3.62,1,2.49,3.08,2.59,4,2.21A3.07,3.07,0,0,0,42,186.91Z"/><path class="cls-8" d="M52.59,184.87a10.68,10.68,0,0,0-1.44.9c-.53.34-1,.68-1.41,1l-.21-.06-.46-1.21a9.91,9.91,0,0,1-.82,1.25,2.94,2.94,0,0,1-1.35,1.11c-1.42.54-2.72,0-3.43-1.85L42,182.18c-.34-.9-.52-.94-1-.86l-.54.06-.23-.61a16.68,16.68,0,0,0,1.53-.72l1.49-.81c.27.77.62,1.75,1,2.85l1,2.65c.54,1.4,1.41,1.58,2.15,1.3a2.37,2.37,0,0,0,1.34-1.32l-1.7-4.45c-.35-.92-.52-1-1.1-.86l-.65.11-.24-.61c.5-.21,1.14-.5,1.73-.8s1.11-.59,1.42-.78l2.37,6.2c.36.95.58,1.08,1.24.85l.49-.17Z"/><path class="cls-8" d="M53.81,177.49c.28-1.33.73-2.48,1.51-2.75a1.23,1.23,0,0,1,1.59.71,1.39,1.39,0,0,1-.38,1.49.45.45,0,0,1-.56.11,1.26,1.26,0,0,0-1-.08c-.43.15-.78.67-.81,1.71l1.2,3.46c.41,1.18.52,1.25,2.06.86l.22.64-4.85,1.68-.22-.63c1.07-.52,1.18-.67.78-1.83l-1.4-4c-.38-1.09-.53-1.13-1.55-1l-.2-.58a15,15,0,0,0,2.85-1.81l.7,2Z"/><path class="cls-8" d="M56.86,171.45a1.3,1.3,0,0,1,.83-1.64,1.29,1.29,0,0,1,.77,2.46A1.31,1.31,0,0,1,56.86,171.45ZM59.56,183l-.2-.64c1.07-.52,1.19-.64.77-2l-1.24-3.82c-.39-1.23-.5-1.23-1.59-1.06l-.2-.61A16.4,16.4,0,0,0,60,173.18l2.12,6.57c.42,1.29.55,1.36,1.79,1.13l.2.64Z"/><path class="cls-8" d="M68.11,180.32a2.65,2.65,0,0,1-.77.48c-1.33.41-2.35-.09-2.85-1.76l-1.64-5.42-1.26.38-.16-.23.33-.88.79-.24-.4-1.33,1.34-2,.33,0,.8,2.65,2-.62a.79.79,0,0,1,.15,1l-1.88.56,1.44,4.75c.46,1.51,1.17,1.54,1.61,1.41a2.78,2.78,0,0,0,1-.59l.39.63Z"/><path class="cls-8" d="M76.07,169.54c-.94.42-1.08.64-1.28,1.8s-.36,2.92-.79,6.14a56.87,56.87,0,0,0-.51,5.83.7.7,0,0,1-.57.73,1.42,1.42,0,0,1-1.6-.79c-.09-.34,0-.55.34-.88a3.86,3.86,0,0,0,1-1.83,6.2,6.2,0,0,0,.18-1.16,1.35,1.35,0,0,0-.28-.87c-1.6-2.3-3.27-4.6-4-5.55a1.61,1.61,0,0,0-1.93-.85l-.19-.68,4.44-1.21.18.68c-.84.36-.88.56-.5,1.15l2.77,4.08c.15-1.38.31-3.59.37-4.85,0-.72-.15-.91-1.23-.77l-.18-.67,3.55-1Z"/><path class="cls-8" d="M88.54,175.14l-.16-.72c1.12-.42,1.21-.61.77-1.37-.36-.57-.85-1.4-1.37-2.21l-3.87.84c-.1.67-.2,1.42-.25,2.26-.1,1.12,0,1.31,1.48,1.17l.16.73-4.37.94-.16-.72c1.25-.45,1.47-.65,1.75-2.45l1.74-11,.87-.43c1.9,3.07,4,6.48,5.91,9.52.95,1.56,1.25,1.69,2.56,1.56l.16.73Zm-3.84-9.49h-.06c-.22,1.65-.42,3.3-.64,4.91l3.23-.7Z"/><path class="cls-8" d="M106.48,162.2a4.29,4.29,0,0,0-1-1.82c-.41-.34-.78-.41-2-.23l-1.11.16,1.4,9.45c.24,1.62.44,1.74,2.24,1.6l.11.74-6.1.9-.11-.74c1.71-.38,1.85-.55,1.61-2.17l-1.39-9.45-1,.14c-1.46.22-1.8.47-2,.87a5.46,5.46,0,0,0-.42,2l-.78.11c-.12-1.37-.21-2.77-.32-3.83l.52-.08a1,1,0,0,0,1.15.36l7.67-1.14a1.09,1.09,0,0,0,1-.67l.54-.07c.14.86.49,2.48.74,3.69Z"/><path class="cls-8" d="M114.38,169.3a4.47,4.47,0,0,1-3.21,2.43,4,4,0,0,1-4.52-3.85,5.26,5.26,0,0,1,1-3.78,4.41,4.41,0,0,1,2.8-1.77h0a3.24,3.24,0,0,1,3.51,2.85c0,.43,0,.7-.44.8s-2.78.57-4.89.9c.3,2.29,1.75,3.25,3.15,3.09A3.19,3.19,0,0,0,114,168.8Zm-5.74-3.4c1-.11,1.84-.24,2.82-.39.31,0,.42-.13.38-.46-.09-1-.77-1.93-1.66-1.82S108.69,164.34,108.64,165.9Z"/><path class="cls-8" d="M121.51,170.79a1.6,1.6,0,0,1-1.1-.31,2.31,2.31,0,0,1-.59-.76,6.49,6.49,0,0,1-2.12,1.37,2.58,2.58,0,0,1-2.8-2.35,2,2,0,0,1,1.42-2.15,12.72,12.72,0,0,0,3.07-1.59l0-.43c-.1-1.28-.7-2-1.57-1.94a1,1,0,0,0-.76.43,4.14,4.14,0,0,0-.46,1.4.71.71,0,0,1-.7.64,1.18,1.18,0,0,1-1.18-.89c0-.33.19-.58.6-1a10.25,10.25,0,0,1,3.07-1.68,2.81,2.81,0,0,1,1.91.46,2.94,2.94,0,0,1,1.19,2.43l.27,3.5c.07.93.41,1.19.72,1.17a2,2,0,0,0,.71-.25l.26.65Zm-2-4.95c-.42.24-1,.61-1.42.86-.65.38-1,.78-.93,1.47a1.37,1.37,0,0,0,1.41,1.38,2,2,0,0,0,1.16-.59Z"/><path class="cls-8" d="M134.24,170.07l0-.67c1-.16,1.2-.25,1.17-1.52l-.08-3.43c0-1.54-.71-2.08-1.6-2.06a3.09,3.09,0,0,0-1.85.87c0,.25,0,.5.06.81l.09,4c0,1.16.21,1.27,1.19,1.38l0,.67-4.47.1,0-.67c1.06-.16,1.17-.25,1.14-1.45l-.08-3.54c0-1.45-.63-2-1.57-2a3,3,0,0,0-1.81.87l.11,4.77c0,1.18.16,1.28,1,1.4l0,.67-4.51.1,0-.67c1.22-.16,1.37-.27,1.34-1.5l-.09-4.17c0-1.19-.1-1.33-1.17-1.46v-.64a16.55,16.55,0,0,0,3.2-.85l0,1.57c.43-.29.84-.61,1.33-.95a3,3,0,0,1,1.71-.64,2.4,2.4,0,0,1,2.28,1.55c.51-.37,1-.73,1.5-1.1a2.91,2.91,0,0,1,1.55-.58c1.66,0,2.66,1.11,2.71,3.1l.09,3.89c0,1.21.14,1.29,1.23,1.42l0,.67Z"/><path class="cls-8" d="M155.8,165.38c-1.07.13-1.18.19-1.25,1.45l-.1,1.64a11,11,0,0,0,0,1.92,19.69,19.69,0,0,1-4.48.45c-4.46-.26-7.13-3.12-6.9-7.08.26-4.63,4-6.75,8-6.52a15.06,15.06,0,0,1,3.73.78c0,.69.08,1.77.12,3.26l-.77.1c-.38-2.4-1.75-3.22-3.47-3.32-2.57-.15-4.8,1.89-5,5.52-.17,3,1.19,6.23,4.56,6.42a2.8,2.8,0,0,0,1.32-.21c.34-.18.53-.45.57-1.14l.11-1.79c.07-1.37,0-1.51-2-1.8l0-.74,5.55.32Z"/><path class="cls-8" d="M165.55,171.5a11.17,11.17,0,0,0-1.7.15c-.63.06-1.2.15-1.69.22l-.16-.16.14-1.28a8.87,8.87,0,0,1-1.29.74,3,3,0,0,1-1.71.38c-1.52-.16-2.43-1.24-2.22-3.21l.43-4c.1-.95,0-1.08-.53-1.24l-.51-.19.07-.64c.48,0,1.08.07,1.69,0l1.7,0c-.11.81-.24,1.84-.37,3l-.3,2.81c-.16,1.5.54,2.05,1.33,2.14a2.39,2.39,0,0,0,1.79-.57l.51-4.74c.1-1,0-1.11-.6-1.26l-.63-.2.07-.65c.54,0,1.24.07,1.9.07s1.26,0,1.62-.05l-.7,6.6c-.11,1,0,1.22.72,1.32l.51.07Z"/><path class="cls-8" d="M171.93,173.18a1.74,1.74,0,0,1-1-.54,2.42,2.42,0,0,1-.4-.88,6.55,6.55,0,0,1-2.37.87,2.57,2.57,0,0,1-2.21-2.9c.15-1,.75-1.52,1.86-1.78a13.42,13.42,0,0,0,3.34-.88l.06-.43c.19-1.27-.24-2.1-1.1-2.23a1,1,0,0,0-.84.26,3.75,3.75,0,0,0-.75,1.25.7.7,0,0,1-.82.47,1.15,1.15,0,0,1-.95-1.12c0-.33.31-.53.79-.79a9.92,9.92,0,0,1,3.35-1,2.82,2.82,0,0,1,1.77.87,3,3,0,0,1,.62,2.63l-.51,3.46c-.13.93.14,1.26.45,1.3a2,2,0,0,0,.74-.08l.12.69Zm-.89-5.27c-.46.14-1.13.36-1.57.53-.72.22-1.13.54-1.23,1.23a1.36,1.36,0,0,0,1.07,1.65,2,2,0,0,0,1.26-.33Z"/><path class="cls-8" d="M178.35,166.84c.89-1,1.84-1.81,2.66-1.67a1.24,1.24,0,0,1,1,1.4,1.41,1.41,0,0,1-1.06,1.12.46.46,0,0,1-.54-.19,1.3,1.3,0,0,0-.81-.54c-.45-.08-1,.2-1.55,1.1l-.63,3.61c-.22,1.22-.15,1.34,1.37,1.75l-.11.66-5.06-.89.12-.66c1.19.07,1.35,0,1.57-1.21l.73-4.18c.2-1.15.09-1.25-.88-1.6l.1-.61a14.64,14.64,0,0,0,3.38-.19l-.37,2.1Z"/><path class="cls-8" d="M190.26,175.89a27.59,27.59,0,0,0-3.65,0l.25-1.18-1.38.5a2.57,2.57,0,0,1-1.28.17,4.18,4.18,0,0,1-2.93-5.11,5.23,5.23,0,0,1,6.26-3.82,6.55,6.55,0,0,1,1,.38l.5-2.36c.23-1.14.13-1.23-1.12-1.62l.13-.65a21.58,21.58,0,0,0,3.65.06l-2.39,11.4c-.22,1-.13,1.15.6,1.39l.53.13Zm-2.11-7.33a1.91,1.91,0,0,0-1.44-1.32c-.65-.14-2.34.11-3,3-.49,2.37.7,3.71,1.72,3.92A2.59,2.59,0,0,0,187,174Z"/><path class="cls-8" d="M206.21,177.15c-.51.83-1.37,2.13-1.86,2.74a19.59,19.59,0,0,1-3.67-.47c-4.86-1.31-6-5.18-5.19-8.27,1.1-4.05,4.86-6,9.24-4.76A14.22,14.22,0,0,1,208,167.8c-.12,1.11-.22,2-.44,3.2l-.77-.06c0-2.32-1-3.35-2.71-3.82-2.82-.76-5.12,1.41-5.9,4.31-1,3.54.35,6.45,3,7.15,1.68.46,3-.24,4.46-1.93Z"/><path class="cls-8" d="M213,173.19a4.38,4.38,0,0,1,2.83,5.68,4.5,4.5,0,0,1-5.72,3.29,4.41,4.41,0,0,1-3-5.66,4.67,4.67,0,0,1,5.87-3.31Zm-.52.69c-.91-.29-2.15.52-2.84,2.68-.75,2.38-.45,4.46.9,4.89.91.29,2-.14,2.81-2.82.77-2.43.54-4.31-.85-4.75Z"/><path class="cls-8" d="M216.11,184.16a1.35,1.35,0,0,1-.81-1.77,1.36,1.36,0,1,1,2.57.88,1.34,1.34,0,0,1-1.75.89Z"/><path class="cls-8" d="M221.83,185.28c-.63,1.72-2.53,2.14-4.11,2l0-.8c1.24,0,2-.37,2.27-1.15a1.6,1.6,0,0,0-.8-1.86c-.09-.06-.2-.31-.06-.71a1.11,1.11,0,0,1,1.47-.55A2.44,2.44,0,0,1,221.83,185.28Z"/><path class="cls-8" d="M232.79,186.62c-.41.68-1.53,2.38-1.89,2.84L222.17,186l.27-.7c1.6.49,1.83.45,2.44-1.09l2.84-7.2c.62-1.57.48-1.76-.92-2.43l.27-.69,5.33,2.1-.27.69c-1.5-.47-1.71-.42-2.33,1.15L227,185.06c-.36.92-.41,1.32-.09,1.64a4.09,4.09,0,0,0,1.43.79,2.56,2.56,0,0,0,2.15.17,6.15,6.15,0,0,0,1.7-1.49Z"/><path class="cls-8" d="M235.11,191.3a3,3,0,0,1-.9-.12c-1.28-.56-1.74-1.59-1.05-3.19l2.24-5.21-1.2-.51,0-.28.82-.46.76.32.55-1.28,2.29-.62.24.22-1.09,2.54,1.93.83a.77.77,0,0,1-.53.87l-1.8-.77-2,4.56c-.62,1.44-.1,1.92.32,2.11a2.64,2.64,0,0,0,1.14.18l-.11.74Z"/><path class="cls-8" d="M245.54,195.58a29.32,29.32,0,0,0-3.55-.84l.51-1.08-1.45.16a2.63,2.63,0,0,1-1.29-.13,4.19,4.19,0,0,1-1.64-5.66,5.2,5.2,0,0,1,7-2.24,5.55,5.55,0,0,1,.86.6l1-2.18c.5-1.05.42-1.16-.71-1.83l.28-.6a23.63,23.63,0,0,0,3.53.91l-5,10.51c-.45,1-.4,1.09.26,1.49l.48.26ZM245.2,188a1.92,1.92,0,0,0-1.09-1.63c-.59-.28-2.29-.44-3.57,2.24-1,2.18-.19,3.76.75,4.21a2.75,2.75,0,0,0,1.54.18Z"/><path class="cls-8" d="M246.83,197.19a1.42,1.42,0,1,1,1.87-.61,1.34,1.34,0,0,1-1.86.61Z"/><path class="cls-9" d="M107.23,247.54l-.31,1.76c-.74.06-1.39.09-1.94.09a25.55,25.55,0,0,1-2.89-.19c-1.93-.2-3.16-.31-3.67-.31a29.58,29.58,0,0,0-4,.41,39.68,39.68,0,0,0,1.6-5.05,58.84,58.84,0,0,0,1-6.47q-3.6,0-11.16.15-7.84,12-11.49,15C72,255,69.64,256,67.44,256a4.16,4.16,0,0,1-2.57-.66,2.1,2.1,0,0,1-.85-1.71,1.86,1.86,0,0,1,.5-1.33,1.62,1.62,0,0,1,1.23-.52,6.19,6.19,0,0,1,1.17.15,13.47,13.47,0,0,0,2.46.43q2.07,0,4.56-2.34,4.07-3.81,12-16,9-13.78,14.56-20.08a59.38,59.38,0,0,0-9.48,1.3,7.78,7.78,0,0,0-3.87,2.46A5.34,5.34,0,0,0,85.86,221a4.63,4.63,0,0,0,.4,1.57,5.62,5.62,0,0,1,.43,1.66,1.69,1.69,0,0,1-.52,1.2,1.72,1.72,0,0,1-1.27.52,2,2,0,0,1-1.68-.78,3.71,3.71,0,0,1-.63-2.36,8.73,8.73,0,0,1,1.16-4.29,9.73,9.73,0,0,1,3.31-3.48,16.45,16.45,0,0,1,5.39-2.14,42.27,42.27,0,0,1,5.85-.71,31.13,31.13,0,0,0,4.56-.58,7,7,0,0,0,2.78-1.58q-.93,3.8-1.33,6.63l-2.41,17.79-1.38,12.75a16.58,16.58,0,0,0,4.09.59A13.38,13.38,0,0,0,107.23,247.54Zm-9.92-12a153.78,153.78,0,0,1,3-18.26q-3.9,5.17-4.83,6.53L87.53,235.5q2.55.09,7.29.09Q96,235.59,97.31,235.5Z"/><path class="cls-9" d="M111.76,242.21a2.6,2.6,0,0,1,2,.91,3.29,3.29,0,0,1,.82,2.3,4.78,4.78,0,0,1-1,3.14,3,3,0,0,1-2.41,1.14,2.69,2.69,0,0,1-2-.85,3,3,0,0,1-.82-2.17,5.32,5.32,0,0,1,1.14-3.39A2.65,2.65,0,0,1,111.76,242.21Z"/><path class="cls-9" d="M145.69,247.14l-.43,1.75a16.93,16.93,0,0,1-3.48.47c-.86,0-2.29-.1-4.28-.28-1.5-.12-2.84-.19-4-.19a37.77,37.77,0,0,0-6.34.56l.43-1.69a9.81,9.81,0,0,0,4.52-1.3,5.39,5.39,0,0,0,1.74-2.42q.74-1.69,3.28-11.93L141,215.79l.22-.77c-1.21-.06-2.13-.09-2.74-.09a26.9,26.9,0,0,0-9,1.23,10.43,10.43,0,0,0-5,3.58,8.53,8.53,0,0,0-1.68,5.06,4.56,4.56,0,0,0,.34,1.76,8.8,8.8,0,0,0,1.36,1.79,3.29,3.29,0,0,1,1,2.1,1.91,1.91,0,0,1-.61,1.42,2.08,2.08,0,0,1-1.48.58,2.4,2.4,0,0,1-2.09-1.23,8.38,8.38,0,0,1-1.17-4.62,13.14,13.14,0,0,1,2.32-7.3,15.36,15.36,0,0,1,6.39-5.48,22.89,22.89,0,0,1,9.89-1.94,76.78,76.78,0,0,1,8.83.8,55.8,55.8,0,0,0,6.25.56,4.42,4.42,0,0,0,2.74-.65,2.1,2.1,0,0,0,.81-1.72,8.71,8.71,0,0,0-.1-.87,6.37,6.37,0,0,1-.09-.77,1.88,1.88,0,0,1,.56-1.38,1.79,1.79,0,0,1,1.32-.56,1.94,1.94,0,0,1,1.52.68,2.65,2.65,0,0,1,.6,1.82,4.85,4.85,0,0,1-2.49,4q-2.49,1.69-8.33,1.7c-1.4,0-2.88-.07-4.46-.19q-.31,1.11-2,7.51L141.3,233.5l-1.64,6.5-1.7,7.42a30.76,30.76,0,0,0,3.42.24A18.84,18.84,0,0,0,145.69,247.14Z"/><path class="cls-9" d="M152.13,242.21a2.64,2.64,0,0,1,2,.91,3.34,3.34,0,0,1,.82,2.3,4.73,4.73,0,0,1-1,3.14,3,3,0,0,1-2.4,1.14,2.73,2.73,0,0,1-2-.85,3,3,0,0,1-.81-2.17,5.32,5.32,0,0,1,1.14-3.39A2.64,2.64,0,0,1,152.13,242.21Z"/><path class="cls-9" d="M196.54,224.41h-1.66a24.93,24.93,0,0,0,.15-2.55q0-4.16-2.14-6.07a7.67,7.67,0,0,0-5.28-1.91,15.56,15.56,0,0,0-8.72,2.94,22.14,22.14,0,0,0-7.16,8.2A23.25,23.25,0,0,0,169,236q0,5.82,2.75,8.56a8.59,8.59,0,0,0,6.18,2.73,14,14,0,0,0,7.45-2.12,29.77,29.77,0,0,0,1.42-6.44,1.44,1.44,0,0,0-.57-1.21,3.38,3.38,0,0,0-2-.45q-.49,0-2.37.15l.28-1.5a14.7,14.7,0,0,1,2.74-.25c.74,0,1.65,0,2.74.06l1.88,0c.73,0,1.86-.06,3.38-.18.8-.07,1.49-.11,2.07-.13l-.34,1.57a2.82,2.82,0,0,0-2.21.67A9.3,9.3,0,0,0,191,241.1q-2.53,10.5-5,15.2a17.36,17.36,0,0,1-5.59,6.74,12.09,12.09,0,0,1-6.76,2,8.15,8.15,0,0,1-5-1.4,3.81,3.81,0,0,1-1.89-2.94,2,2,0,0,1,2-2,3.53,3.53,0,0,1,2.37,1.48,11.69,11.69,0,0,0,2.36,2.15,3.49,3.49,0,0,0,1.8.5,4.69,4.69,0,0,0,3.42-1.51q3-3,5.94-13.83a19,19,0,0,1-4.12,1.68,16.3,16.3,0,0,1-4.29.57c-3.61,0-6.45-1-8.52-2.86q-4.17-3.83-4.16-10.65a23.07,23.07,0,0,1,3.15-11.69,25.84,25.84,0,0,1,8.78-9A20.23,20.23,0,0,1,186.13,212a28.61,28.61,0,0,1,6.44.86,30.86,30.86,0,0,0,5.66.86A38.57,38.57,0,0,0,196.54,224.41Z"/><path class="cls-9" d="M200.08,242.21a2.62,2.62,0,0,1,2,.91,3.34,3.34,0,0,1,.82,2.3,4.73,4.73,0,0,1-1,3.14,3,3,0,0,1-2.4,1.14,2.73,2.73,0,0,1-2-.85,3,3,0,0,1-.81-2.17,5.32,5.32,0,0,1,1.14-3.39A2.64,2.64,0,0,1,200.08,242.21Z"/></g></g></svg>