<svg height="512" viewBox="0 0 256 256" width="512" xmlns="http://www.w3.org/2000/svg"><g id="Layer_37"><g><g><path d="m146.166 53.229c-2.485-2.606-6.526-2.846-9.359-.623-4.479 3.516-12.23 7.862-23.178 7.862-10.974 0-18.766-4.367-23.264-7.888-2.831-2.215-6.863-1.967-9.344.634l-.013.014c-3.485 3.655-5.43 8.512-5.43 13.562v31.9c0 20.905 17.104 38.009 38.009 38.009 20.905 0 38.009-17.104 38.009-38.009v-31.899c0-5.05-1.945-9.907-5.43-13.562z" fill="#f9d0b4"/></g><g><path d="m154.035 69.723c-.83 0-1.644.07-2.439.193v28.774c0 .857-.039 1.705-.096 2.549.827.133 1.67.221 2.535.221 8.764 0 15.869-7.105 15.869-15.869s-7.105-15.868-15.869-15.868z" fill="#f9d0b4"/></g><g><path d="m75.578 98.69c0-3.938 0-20.945 0-28.774-.796-.123-1.609-.193-2.439-.193-8.764 0-15.869 7.105-15.869 15.869s7.105 15.869 15.869 15.869c.865 0 1.707-.088 2.535-.221v-.001c-.057-.844-.096-1.692-.096-2.549z" fill="#f9d0b4"/></g><g><path d="m151.454 37.301c-1.273 0-2.376-.982-2.394-2.254-.291-21.18-24.477-25.158-48.563-20.999-20.421 3.526-35.346 21.235-35.346 41.958v15.891c2.348-1.373 5.072-2.173 7.988-2.173.83 0 1.643.07 2.439.193v-3.125c0-5.05 1.944-9.907 5.43-13.562l.013-.014c2.481-2.601 6.513-2.85 9.344-.634 4.498 3.521 12.29 7.888 23.264 7.888 10.947 0 18.698-4.346 23.178-7.862 2.833-2.224 6.874-1.984 9.359.623 3.485 3.655 5.43 8.512 5.43 13.562v3.125c.796-.123 1.609-.193 2.439-.193 2.951 0 5.705.82 8.072 2.224 0-4.435 0-8.99 0-13.047 0-18.967-6.849-21.601-10.653-21.601z" fill="#5b5d60"/></g><g><path d="m227.571 175.08c0 3.224-4.312 5.921-4.998 8.938-.708 3.115 1.99 7.411.635 10.222-1.378 2.857-6.433 3.417-8.393 5.871-1.969 2.466-1.398 7.516-3.864 9.485-2.454 1.959-7.248.286-10.105 1.664-2.81 1.356-4.482 6.16-7.597 6.868-3.017.686-6.6-2.902-9.824-2.902s-6.808 3.588-9.824 2.902c-3.115-.708-4.787-5.513-7.597-6.869-2.857-1.378-7.651.295-10.105-1.664-2.466-1.969-1.895-7.02-3.864-9.485-1.959-2.454-7.015-3.014-8.393-5.871-1.356-2.81 1.343-7.106.635-10.221-.686-3.017-4.998-5.713-4.998-8.938 0-3.224 4.312-5.921 4.998-8.938.708-3.115-1.99-7.411-.635-10.222 1.378-2.857 6.433-3.417 8.393-5.871 1.969-2.466 1.398-7.516 3.864-9.485 2.454-1.959 7.248-.286 10.105-1.664 2.81-1.356 4.482-6.16 7.597-6.868 3.017-.686 6.6 2.902 9.824 2.902s6.808-3.588 9.824-2.902c3.115.708 4.787 5.513 7.597 6.869 2.857 1.378 7.651-.295 10.105 1.664 2.466 1.969 1.895 7.02 3.864 9.485 1.959 2.454 7.015 3.014 8.393 5.871 1.356 2.81-1.343 7.106-.635 10.221.685 3.017 4.998 5.714 4.998 8.938z" fill="#fcdd86"/></g><g><path d="m200.846 211.26c-2.81 1.356-4.482 6.16-7.597 6.869-3.017.686-6.6-2.903-9.824-2.903s-6.807 3.588-9.824 2.903c-3.115-.708-4.787-5.513-7.597-6.869-.18-.087-.367-.161-.561-.225v36.561c0 3.261 2.643 5.904 5.904 5.904h24.157c3.26 0 5.904-2.643 5.904-5.904v-36.561c-.195.064-.383.139-.562.225z" fill="#70d6f9"/></g><g><path d="m165.442 247.596v-36.561c-2.89-.957-7.245.397-9.544-1.439-2.466-1.969-1.895-7.02-3.864-9.485-1.959-2.454-7.015-3.014-8.393-5.871-1.356-2.81 1.343-7.106.635-10.221-.686-3.017-4.998-5.713-4.998-8.938s4.312-5.921 4.998-8.938c.708-3.115-1.99-7.411-.635-10.222.435-.901 1.235-1.573 2.189-2.148-4.577-1.871-7.475-3.456-7.41-3.424-4.484-2.211-7.324-6.777-7.324-11.777v-6.186c-5.249 2.748-11.204 4.313-17.511 4.313-6.306 0-12.261-1.565-17.511-4.313v6.186c0 5-2.839 9.566-7.324 11.777-6.059 2.988-11.348 5.375-19.373 7.394l-20.578 5.179c-6.365 1.602-10.95 7.158-11.315 13.711l-4.202 72.465c-.133 2.39 1.769 4.402 4.163 4.402h133.898c-3.257 0-5.901-2.643-5.901-5.904z" fill="#b598f9"/></g><g><circle cx="183.425" cy="175.08" fill="#fca265" r="28.175"/></g><g><path d="m88.753 150.349c-1.235.609-2.439 1.192-3.64 1.753 5.086 10.632 15.958 18.022 28.474 18.022 12.505 0 23.368-7.376 28.46-17.991-2.316-1.066-3.67-1.806-3.626-1.784-4.484-2.211-7.324-6.777-7.324-11.777v-6.186c-5.249 2.748-11.204 4.313-17.511 4.313-6.306 0-12.261-1.565-17.511-4.313v6.186c.001 5-2.838 9.565-7.322 11.777z" fill="#f9d0b4"/></g><g><path d="m61.826 210.5h-26.303l-2.238 38.598c-.133 2.39 1.769 4.402 4.163 4.402h24.379v-43z" fill="#f9d0b4"/></g><g><path d="m170.061 174.787c6.608-1.175 11.748-6.315 13.07-12.776 0-.294.587-.294.587 0 1.322 6.461 6.461 11.601 13.07 12.776.294 0 .294.441 0 .587-6.608 1.175-11.748 6.315-13.07 12.776 0 .294-.587.294-.587 0-1.322-6.461-6.461-11.601-13.07-12.776-.293-.147-.293-.587 0-.587z" fill="#f5c84c"/></g><g><path d="m53.6 6.175c-3.1-.6-5.6-3-6.2-6.1 0-.1-.3-.1-.3 0-.6 3.1-3.1 5.5-6.2 6.1-.1 0-.1.2 0 .3 3.1.6 5.6 3 6.2 6.1 0 .1.3.1.3 0 .6-3.1 3.1-5.5 6.2-6.1.1-.1.1-.3 0-.3z" fill="#fc657e"/></g><g><path d="m36.6 124.5h2.3v2.3c0 1.8 1.4 3.2 3.2 3.2 1.7 0 3.2-1.4 3.2-3.1v-.1-2.3h2.3c1.8 0 3.2-1.4 3.2-3.2 0-1.7-1.4-3.2-3.1-3.2h-.1-2.3v-2.3c0-1.8-1.4-3.2-3.2-3.2-1.7 0-3.2 1.4-3.2 3.1v.1 2.3h-2.3c-1.8 0-3.2 1.4-3.2 3.2-.1 1.7 1.3 3.2 3.2 3.2-.1 0-.1 0 0 0z" fill="#87d147"/></g><g><circle cx="243" cy="139.9" fill="#70d6f9" r="3.4"/></g><g><circle cx="13" cy="161.4" fill="#f5c84c" r="3.4"/></g><g><path d="m202.4 87.2c4.5-.8 8-4.3 8.9-8.7 0-.2.4-.2.4 0 .9 4.4 4.4 7.9 8.9 8.7.2 0 .2.3 0 .4-4.5.8-8 4.3-8.9 8.7 0 .2-.4.2-.4 0-.9-4.4-4.4-7.9-8.9-8.7-.2-.1-.2-.4 0-.4z" fill="#f5c84c"/></g><g><path d="m113.587 139.199c-22.336 0-40.509-18.172-40.509-40.509v-31.898c0-5.719 2.174-11.148 6.121-15.288 3.377-3.543 8.835-3.921 12.707-.892 4.288 3.356 11.538 7.356 21.723 7.356 10.164 0 17.375-3.985 21.634-7.329 3.877-3.043 9.342-2.671 12.712.864 3.947 4.139 6.121 9.568 6.121 15.288v31.899c0 22.336-18.173 40.509-40.509 40.509zm-27.565-85.624c-1.172 0-2.33.461-3.192 1.365-3.069 3.219-4.752 7.423-4.752 11.851v31.899c0 19.58 15.929 35.509 35.509 35.509s35.509-15.929 35.509-35.509v-31.898c0-4.428-1.683-8.632-4.739-11.837-1.584-1.662-4.167-1.826-6.007-.381-4.879 3.83-13.129 8.396-24.721 8.396-11.61 0-19.897-4.578-24.805-8.419-.835-.655-1.823-.976-2.802-.976z"/></g><g><path d="m61.827 255.071c-1.381 0-2.5-1.119-2.5-2.5v-63.143c0-1.381 1.119-2.5 2.5-2.5s2.5 1.119 2.5 2.5v63.143c0 1.381-1.119 2.5-2.5 2.5z"/></g><g><path d="m154.035 103.96c-.917 0-1.876-.083-2.933-.253-1.274-.206-2.183-1.348-2.096-2.636.061-.916.09-1.672.09-2.381v-28.774c0-1.232.898-2.281 2.116-2.47.953-.148 1.902-.223 2.823-.223 10.129 0 18.369 8.24 18.369 18.369 0 10.128-8.24 18.368-18.369 18.368zm.061-31.737v26.467c0 .089 0 .179-.001.27 7.344-.032 13.309-6.017 13.309-13.369 0-7.351-5.965-13.336-13.308-13.368z"/></g><g><path d="m73.139 103.96c-10.129 0-18.369-8.24-18.369-18.369 0-10.128 8.24-18.369 18.369-18.369.92 0 1.87.075 2.823.223 1.218.189 2.116 1.238 2.116 2.47v28.775c0 .709.029 1.465.09 2.38.087 1.287-.82 2.429-2.094 2.635-1.054.172-2.014.255-2.935.255zm-.061-31.737c-7.344.032-13.308 6.017-13.308 13.368 0 7.352 5.965 13.337 13.309 13.369 0-.091-.001-.181-.001-.27z"/></g><g><path d="m114.14 115.642c-4.863 0-9.429-1.984-12.214-5.307-.887-1.059-.748-2.635.31-3.522 1.059-.888 2.635-.747 3.522.31 1.847 2.204 4.98 3.519 8.382 3.519 3.401 0 6.535-1.315 8.382-3.519.887-1.058 2.463-1.198 3.521-.31 1.058.887 1.197 2.464.31 3.521-2.786 3.324-7.352 5.308-12.213 5.308z"/></g><g><circle cx="131.287" cy="87.346" r="5.107"/></g><g><circle cx="96.992" cy="87.346" r="5.107"/></g><g><path d="m162.107 74.446c-.441 0-.882-.117-1.275-.35-2.068-1.226-4.418-1.874-6.797-1.874-.664 0-1.355.055-2.055.164-.723.112-1.456-.097-2.01-.572s-.874-1.168-.874-1.898v-3.125c0-4.428-1.683-8.632-4.739-11.837-1.584-1.662-4.167-1.826-6.006-.381-4.879 3.83-13.129 8.396-24.721 8.396-11.61 0-19.897-4.578-24.805-8.419-1.836-1.436-4.413-1.269-5.994.391-3.069 3.219-4.752 7.423-4.752 11.851v3.125c0 .73-.319 1.424-.874 1.898-.554.475-1.288.684-2.01.572-.7-.108-1.391-.164-2.055-.164-2.352 0-4.678.633-6.727 1.831-.773.451-1.729.456-2.506.01s-1.256-1.273-1.256-2.168v-15.891c0-21.995 15.738-40.677 37.421-44.421 19.095-3.298 34.99-1.083 43.61 6.075 5.078 4.217 7.726 9.983 7.874 17.142 4.924.044 13.051 3.276 13.051 24.098v13.047c0 .898-.482 1.728-1.263 2.172-.383.219-.81.328-1.237.328zm-8.011-7.223c1.874.006 3.733.304 5.511.875v-9.198c0-12.137-2.972-19.099-8.153-19.099-2.662 0-4.857-2.118-4.894-4.72-.079-5.727-2.122-10.294-6.072-13.575-7.493-6.222-21.914-8.042-39.565-4.995-19.279 3.329-33.272 19.939-33.272 39.494v12.065c1.753-.553 3.583-.841 5.427-.847v-.431c0-5.719 2.173-11.148 6.121-15.288 3.377-3.543 8.835-3.921 12.707-.892 4.288 3.356 11.538 7.356 21.723 7.356 10.164 0 17.375-3.985 21.634-7.329 3.877-3.043 9.342-2.671 12.712.864 3.947 4.139 6.121 9.568 6.121 15.288zm-2.536-32.211h.01z"/></g><g><path d="m189.84 255.375c-1.381 0-2.5-1.119-2.5-2.5v-34.659c0-1.381 1.119-2.5 2.5-2.5s2.5 1.119 2.5 2.5v34.659c0 1.381-1.119 2.5-2.5 2.5z"/></g><g><path d="m177.01 255.042c-1.381 0-2.5-1.119-2.5-2.5v-34.573c0-1.381 1.119-2.5 2.5-2.5s2.5 1.119 2.5 2.5v34.573c0 1.38-1.119 2.5-2.5 2.5z"/></g><g><path d="m174.403 220.717c-.447 0-.899-.046-1.357-.15-2.569-.584-4.208-2.666-5.654-4.503-.848-1.077-1.725-2.19-2.475-2.552-.785-.379-2.226-.373-3.621-.367-2.31.008-4.936.02-6.958-1.595-2.031-1.622-2.603-4.188-3.107-6.451-.302-1.355-.614-2.756-1.15-3.428-.529-.663-1.819-1.274-3.067-1.865-2.104-.996-4.488-2.125-5.624-4.48-1.119-2.318-.525-4.864-.002-7.11.318-1.366.647-2.779.451-3.644-.18-.794-1.063-1.887-1.916-2.943-1.474-1.825-3.144-3.894-3.144-6.548 0-2.655 1.67-4.724 3.144-6.548.853-1.057 1.736-2.15 1.916-2.943.197-.866-.132-2.278-.451-3.645-.523-2.246-1.116-4.792.002-7.109 1.136-2.354 3.521-3.484 5.624-4.48 1.248-.591 2.539-1.202 3.068-1.865.536-.671.848-2.072 1.15-3.427.504-2.264 1.076-4.83 3.107-6.452 2.022-1.615 4.64-1.605 6.958-1.595 1.391.001 2.836.011 3.621-.367.75-.362 1.626-1.476 2.474-2.552 1.446-1.837 3.085-3.919 5.655-4.503 2.486-.565 4.82.574 6.881 1.578 1.273.621 2.589 1.263 3.498 1.263s2.225-.642 3.498-1.263c2.06-1.004 4.395-2.141 6.881-1.578 2.569.584 4.208 2.666 5.654 4.502.848 1.077 1.724 2.19 2.475 2.552.785.379 2.225.373 3.621.368 2.313-.007 4.936-.02 6.958 1.595 2.031 1.622 2.603 4.188 3.107 6.451.302 1.355.614 2.756 1.15 3.428.529.663 1.819 1.274 3.067 1.865 2.103.996 4.487 2.125 5.623 4.479 1.118 2.318.525 4.864.002 7.11-.318 1.366-.647 2.778-.451 3.644.18.794 1.063 1.887 1.916 2.944 1.474 1.825 3.144 3.893 3.144 6.548s-1.67 4.723-3.144 6.548c-.854 1.057-1.736 2.149-1.916 2.943-.197.865.132 2.278.45 3.644.523 2.246 1.116 4.792-.002 7.11-1.135 2.354-3.52 3.484-5.624 4.48-1.248.591-2.538 1.202-3.067 1.865-.537.671-.849 2.073-1.15 3.428-.504 2.264-1.076 4.83-3.107 6.451-2.022 1.615-4.647 1.601-6.958 1.595-1.394-.008-2.836-.011-3.621.367-.75.362-1.626 1.475-2.474 2.552-1.446 1.837-3.085 3.919-5.654 4.503-2.483.565-4.82-.573-6.881-1.578-1.273-.621-2.589-1.262-3.498-1.262s-2.225.642-3.498 1.263c-1.681.819-3.545 1.727-5.524 1.727zm-12.602-12.574c1.735 0 3.633.067 5.289.866 1.792.864 3.031 2.439 4.23 3.962.933 1.185 1.991 2.528 2.834 2.72.769.177 2.263-.553 3.581-1.196 1.7-.829 3.627-1.768 5.689-1.768s3.989.939 5.688 1.768c1.319.643 2.818 1.373 3.582 1.196.844-.191 1.901-1.535 2.834-2.72 1.199-1.523 2.439-3.098 4.23-3.962 1.824-.88 3.941-.877 5.813-.864 1.485.005 3.173.012 3.818-.502.654-.522 1.022-2.174 1.347-3.631.406-1.821.866-3.885 2.124-5.46 1.251-1.566 3.154-2.468 4.834-3.263 1.355-.642 2.892-1.37 3.26-2.134.352-.73-.028-2.363-.364-3.803-.426-1.828-.908-3.899-.457-5.887.438-1.924 1.69-3.476 2.902-4.977.953-1.181 2.034-2.519 2.034-3.407s-1.081-2.227-2.034-3.407c-1.212-1.5-2.465-3.052-2.902-4.977-.452-1.987.031-4.058.457-5.886.335-1.441.716-3.074.364-3.803-.368-.764-1.905-1.491-3.26-2.133-1.68-.795-3.584-1.697-4.834-3.264-1.258-1.575-1.718-3.639-2.124-5.46-.325-1.458-.693-3.109-1.347-3.631-.645-.515-2.33-.509-3.818-.502-1.872.004-3.99.016-5.813-.864-1.792-.864-3.032-2.439-4.231-3.962-.933-1.185-1.99-2.528-2.834-2.72-.771-.18-2.262.554-3.581 1.196-1.7.829-3.627 1.769-5.689 1.769s-3.989-.939-5.689-1.769c-1.317-.642-2.811-1.37-3.581-1.196-.844.191-1.901 1.535-2.834 2.72-1.199 1.523-2.439 3.098-4.23 3.962-1.824.88-3.95.873-5.814.864-1.493-.006-3.173-.013-3.817.502-.654.522-1.022 2.174-1.347 3.632-.405 1.821-.865 3.885-2.123 5.46-1.251 1.566-3.155 2.468-4.835 3.264-1.355.642-2.892 1.369-3.26 2.133-.352.729.029 2.362.364 3.803.426 1.828.909 3.899.457 5.887-.438 1.925-1.69 3.476-2.902 4.977-.953 1.181-2.034 2.519-2.034 3.407s1.081 2.226 2.034 3.407c1.212 1.5 2.465 3.052 2.902 4.977.452 1.987-.031 4.059-.457 5.886-.335 1.441-.716 3.074-.364 3.803.369.764 1.905 1.492 3.261 2.134 1.68.795 3.583 1.697 4.834 3.263 1.258 1.575 1.718 3.64 2.124 5.46.325 1.458.693 3.109 1.347 3.631.645.515 2.333.503 3.817.502.173-.002.349-.003.525-.003z"/></g><g><path d="m195.503 256h-24.157c-4.634 0-8.404-3.77-8.404-8.404v-36.561c0-.802.385-1.556 1.035-2.026s1.486-.6 2.248-.348c.298.098.585.213.861.346 1.794.866 3.034 2.44 4.233 3.964.933 1.185 1.991 2.528 2.834 2.72.769.177 2.263-.553 3.581-1.196 1.7-.829 3.627-1.768 5.689-1.768s3.989.939 5.688 1.768c1.319.643 2.818 1.373 3.582 1.196.843-.191 1.901-1.535 2.833-2.719 1.199-1.523 2.439-3.099 4.231-3.963.001 0 .002-.001.003-.001.276-.133.564-.249.863-.347.761-.25 1.597-.122 2.248.349.649.47 1.034 1.224 1.034 2.025v36.561c.002 4.634-3.768 8.404-8.402 8.404zm-27.561-39.242v30.838c0 1.877 1.527 3.404 3.404 3.404h24.157c1.877 0 3.404-1.527 3.404-3.404v-30.838c-1.318 1.638-2.854 3.297-5.104 3.809-2.483.565-4.82-.573-6.881-1.578-1.273-.621-2.589-1.262-3.498-1.262s-2.225.642-3.498 1.263c-2.06 1.004-4.392 2.142-6.88 1.578-2.249-.512-3.785-2.172-5.104-3.81z"/></g><g><path d="m171.346 256h-133.898c-1.825 0-3.591-.761-4.846-2.086-1.254-1.326-1.915-3.132-1.813-4.954l4.203-72.47c.427-7.683 5.732-14.111 13.2-15.991l20.578-5.179c8.031-2.021 13.301-4.462 18.878-7.212 3.657-1.803 5.929-5.457 5.929-9.535v-6.186c0-.875.457-1.686 1.206-2.139s1.679-.482 2.454-.076c5.106 2.672 10.607 4.027 16.352 4.027s11.246-1.355 16.352-4.027c.774-.406 1.705-.377 2.454.076s1.206 1.264 1.206 2.139v6.186c0 4.078 2.272 7.731 5.929 9.535.044.021.087.044.13.069.206.111 2.938 1.574 7.12 3.284.875.357 1.474 1.178 1.547 2.121s-.392 1.846-1.202 2.334c-.656.396-1.069.764-1.229 1.094-.352.729.029 2.362.364 3.803.426 1.828.909 3.899.457 5.887-.438 1.925-1.69 3.476-2.902 4.977-.953 1.181-2.034 2.519-2.034 3.407s1.081 2.226 2.034 3.407c1.212 1.5 2.465 3.052 2.902 4.977.452 1.987-.031 4.059-.457 5.887-.335 1.44-.716 3.073-.364 3.802.369.765 1.905 1.492 3.261 2.134 1.68.795 3.583 1.697 4.834 3.263 1.258 1.575 1.718 3.639 2.123 5.46.325 1.458.693 3.11 1.347 3.632.645.515 2.329.512 3.817.502 1.649-.003 3.351-.013 4.953.518 1.023.339 1.714 1.295 1.714 2.373v36.561c0 1.877 1.527 3.404 3.404 3.404 1.381 0 2.5 1.119 2.5 2.5s-1.122 2.496-2.503 2.496zm-72.77-119.712v2.284c0 5.996-3.341 11.368-8.718 14.019-5.837 2.878-11.361 5.436-19.868 7.577l-20.578 5.179c-5.334 1.343-9.124 5.935-9.429 11.426l-4.203 72.471c-.025.458.136.898.455 1.234.318.337.749.522 1.213.522h126.215c-.463-1.041-.72-2.193-.72-3.404v-34.434c-.528-.022-1.093-.02-1.646-.018-2.313.014-4.936.02-6.958-1.595-2.031-1.622-2.603-4.188-3.107-6.452-.302-1.355-.614-2.756-1.15-3.427-.529-.663-1.819-1.273-3.067-1.865-2.104-.996-4.488-2.125-5.624-4.48-1.118-2.317-.525-4.863-.002-7.109.318-1.366.647-2.779.451-3.644-.18-.794-1.063-1.887-1.916-2.943-1.474-1.825-3.144-3.894-3.144-6.548 0-2.655 1.67-4.724 3.144-6.548.853-1.057 1.736-2.15 1.916-2.943.197-.866-.132-2.278-.451-3.645-.523-2.246-1.116-4.792.002-7.109.03-.062.06-.122.092-.182-2.073-.911-3.356-1.564-4.155-2.084l-.011.022c-5.377-2.651-8.718-8.023-8.718-14.019v-2.284c-9.531 3.823-20.494 3.823-30.023-.001z"/></g><g><path d="m183.425 205.755c-16.914 0-30.675-13.761-30.675-30.675s13.761-30.675 30.675-30.675 30.675 13.761 30.675 30.675-13.761 30.675-30.675 30.675zm0-56.349c-14.157 0-25.675 11.518-25.675 25.675s11.518 25.675 25.675 25.675 25.675-11.518 25.675-25.675-11.518-25.675-25.675-25.675z"/></g><g><path d="m113.587 172.625c-13.018 0-25.08-7.632-30.729-19.444-.288-.602-.323-1.293-.099-1.921.225-.628.691-1.14 1.295-1.422 1.186-.554 2.373-1.13 3.593-1.731 3.657-1.803 5.929-5.457 5.929-9.535v-6.186c0-.875.457-1.686 1.206-2.139s1.679-.482 2.454-.076c5.106 2.672 10.607 4.027 16.352 4.027s11.246-1.355 16.352-4.027c.774-.406 1.705-.377 2.454.076s1.206 1.264 1.206 2.139v6.186c0 4.078 2.272 7.731 5.929 9.535.044.021.088.045.13.069.141.077 1.372.737 3.435 1.687.608.28 1.08.792 1.307 1.423.228.63.192 1.325-.098 1.929-5.658 11.79-17.714 19.41-30.716 19.41zm-25.042-19.392c5.197 8.817 14.772 14.391 25.042 14.391 10.249 0 19.811-5.555 25.014-14.344-.533-.261-.96-.487-1.304-.699-5.367-2.654-8.699-8.021-8.699-14.01v-2.284c-9.529 3.824-20.492 3.824-30.021 0v2.284c0 5.996-3.341 11.368-8.718 14.019-.442.219-.88.432-1.314.643zm.207-2.884h.01z"/></g><g><path d="m61.827 256h-24.379c-1.825 0-3.591-.761-4.846-2.087-1.254-1.326-1.915-3.131-1.813-4.954l2.239-38.604c.077-1.322 1.171-2.355 2.496-2.355h26.304c1.381 0 2.5 1.119 2.5 2.5v43c-.001 1.381-1.12 2.5-2.501 2.5zm-23.945-43-2.102 36.243c-.025.458.136.898.455 1.234.318.337.749.522 1.213.522h21.879v-38h-21.445z"/></g><g><path d="m183.425 190.871c-1.432 0-2.58-.998-2.767-2.334-1.161-5.438-5.581-9.732-11.034-10.701-.236-.042-.466-.118-.681-.226-1.187-.593-1.829-1.952-1.527-3.229.265-1.121 1.188-1.934 2.305-2.073 5.408-1.003 9.783-5.277 10.937-10.683.187-1.336 1.335-2.334 2.767-2.334 1.431 0 2.58.998 2.767 2.333 1.155 5.407 5.53 9.681 10.938 10.684 1.117.139 2.04.952 2.305 2.073.302 1.278-.341 2.636-1.527 3.229-.215.107-.444.184-.681.226-5.452.969-9.873 5.262-11.034 10.702-.189 1.335-1.337 2.333-2.768 2.333zm-2.207-2.721h.01zm-4.768-13.069c2.881 1.652 5.299 4.054 6.975 6.932 1.676-2.878 4.094-5.28 6.975-6.932-2.881-1.653-5.299-4.055-6.975-6.933-1.676 2.878-4.094 5.28-6.975 6.933z"/></g></g></g></svg>