<svg id="Capa_1" enable-background="new 0 0 512 512" height="512" viewBox="0 0 512 512" width="512" xmlns="http://www.w3.org/2000/svg"><g><g><g><path d="m304.464 117.326h43.271v58.39h-43.271z" fill="#7a6d79"/><path d="m164.265 110.704h43.271v75.012h-43.271z" fill="#7a6d79"/><path d="m25.453 462.727 98.623 15.861-20.23-240.176-64.791-25.014c-6.552-2.53-13.602 2.306-13.602 9.329z" fill="#ecf4fe"/><path d="m103.846 462.727 45.914 10-15.914-222.732-30-11.583z" fill="#d9ebfe"/><path d="m467.735 483.613-99.581-20.887 10-212.732 77.975-30.104 15.209 1.838c6.552-2.53 13.602 2.306 13.602 9.329z" fill="#ecf4fe"/><path d="m472.946 213.398-16.816 6.492c.262.894.418 1.84.418 2.836v250l30-10v-240c-.001-7.022-7.051-11.858-13.602-9.328z" fill="#d9ebfe"/><path d="m349.154 165.716h-205.308c-5.523 0-10 4.477-10 10v32.431l10 91.403-10 67.409v96.002l225.309 15.627v-302.872c-.001-5.523-4.478-10-10.001-10z" fill="#fee97d"/><path d="m368.154 165.716h-30c5.523 0 10 4.477 10 10v307.245l30-20v-96.002l-10-80.915 10-77.897v-32.431c.001-5.523-4.477-10-10-10z" fill="#fedf30"/><path d="m290.177 483.613h-88.354v-116.654l88.354-24.237 10 82.564z" fill="#7a6d79"/><path d="m290.177 366.959h20v116.655h-20z" fill="#685e68"/><path d="m395.983 7.5h-289.966c-5.523 0-10 4.477-10 10v104.398c0 5.523 4.477 10 10 10h289.966c5.523 0 10-4.477 10-10v-104.398c0-5.523-4.477-10-10-10z" fill="#fe99a0"/><path d="m405.983 7.5h-28.06c5.523 0 10 4.477 10 10v104.398c0 5.523-4.477 10-10 10h28.06c5.523 0 10-4.477 10-10v-104.398c0-5.523-4.477-10-10-10z" fill="#fd8087"/><path d="m479.5 504.5h-467c-2.761 0-5-2.239-5-5v-31.773c0-2.762 2.239-5 5-5h467c2.761 0 5 2.238 5 5v31.773c0 2.761-2.239 5-5 5z" fill="#8795de"/><path d="m499.5 462.727h-30c2.761 0 5 2.239 5 5v31.773c0 2.762-2.239 5-5 5h30c2.761 0 5-2.238 5-5v-31.773c0-2.762-2.239-5-5-5z" fill="#6c7fd8"/><path d="m347.735 366.959h-43.517l-7.5-10-7.5 10h-66.436l-4.917-10-10.083 10h-73.936v-73.415l10-7.5-10-7.5v-70.397h73.936l7.5 10 7.5-10h66.436l7.5 10 7.5-10h43.517l10 77.897z" fill="#8795de"/><path d="m348.155 208.146v158.813h30v-73.415l-10.001-7.5 10.001-7.5v-70.398z" fill="#6c7fd8"/></g></g><g><path d="m259.098 37.516c-1.373-3.339-4.591-5.495-8.201-5.495-.003 0-.006 0-.01 0-3.613.004-6.831 2.167-8.199 5.512-.023.056-.045.112-.066.168l-22.663 59.505c-1.474 3.871.468 8.204 4.339 9.678 3.871 1.475 8.204-.469 9.678-4.339l3.804-9.989h26.059l3.762 9.968c3.395 8.994 17.453 3.762 14.034-5.296l-22.457-59.507c-.025-.069-.053-.137-.08-.205zm-15.605 40.041 7.377-19.368 7.309 19.368z"/><path d="m183.127 32.036c-4.012-.22-7.688 2.286-8.93 6.112-.028.086-.055.173-.08.26l-10.852 38.072-11.255-38.148c-.026-.089-.054-.178-.083-.266-1.281-3.815-4.982-6.286-8.996-6.021-4.015.27-7.35 3.218-8.126 7.254l-10.608 58.774c-.736 4.076 1.973 7.977 6.049 8.713 4.073.732 7.977-1.972 8.713-6.049l6.006-33.278 9.916 33.61c.026.089.054.178.084.266 1.215 3.619 4.587 6.041 8.401 6.041h.047c3.833-.02 7.202-2.483 8.384-6.129.027-.085.054-.171.079-.258l9.573-33.582 6.384 33.405c.778 4.069 4.708 6.739 8.774 5.959 4.069-.777 6.736-4.706 5.959-8.774l-11.253-58.882c-.804-3.941-4.169-6.852-8.186-7.079z"/><path d="m306.386 32.021c-4.142 0-7.5 3.358-7.5 7.5v60.304c0 3.653 2.633 6.775 6.234 7.392.535.092.947.163 7.654.163 3.23 0 7.921-.017 14.789-.055 4.142-.023 7.481-3.4 7.458-7.542-.023-4.128-3.376-7.458-7.499-7.458-.014 0-.029 0-.043 0-4.669.026-9.672.045-13.593.05v-52.854c0-4.142-3.358-7.5-7.5-7.5z"/><path d="m359.289 32.021c-4.142 0-7.5 3.358-7.5 7.5v60.304c0 3.653 2.633 6.775 6.234 7.392.535.092.947.163 7.654.163 3.23 0 7.921-.017 14.789-.055 4.142-.023 7.481-3.4 7.458-7.542-.023-4.128-3.377-7.458-7.499-7.458-.014 0-.029 0-.043 0-4.669.026-9.672.045-13.592.05v-52.854c-.001-4.142-3.359-7.5-7.501-7.5z"/><path d="m499.5 455.227h-5.453v-232.5c0-5.772-2.842-11.167-7.602-14.432-4.761-3.265-10.816-3.972-16.201-1.894l-84.59 32.658v-63.344c0-9.649-7.851-17.5-17.5-17.5h-12.919v-18.818h50.748c9.649 0 17.5-7.851 17.5-17.5v-104.397c0-9.649-7.851-17.5-17.5-17.5h-117.129c-4.142 0-7.5 3.358-7.5 7.5s3.358 7.5 7.5 7.5h117.129c1.378 0 2.5 1.122 2.5 2.5v104.398c0 1.378-1.122 2.5-2.5 2.5h-299.966c-1.378 0-2.5-1.122-2.5-2.5v-104.398c0-1.378 1.122-2.5 2.5-2.5h149.983c4.142 0 7.5-3.358 7.5-7.5s-3.358-7.5-7.5-7.5h-149.983c-9.649 0-17.5 7.851-17.5 17.5v104.398c0 9.649 7.851 17.5 17.5 17.5h50.748v18.818h-12.919c-9.649 0-17.5 7.851-17.5 17.5v63.344l-84.59-32.658c-5.383-2.079-11.441-1.371-16.201 1.894s-7.602 8.66-7.602 14.432v95.126c0 4.142 3.358 7.5 7.5 7.5s7.5-3.358 7.5-7.5v-95.126c0-1.145.681-1.783 1.086-2.062.406-.278 1.247-.683 2.314-.27l89.993 34.744v200.088h-93.393v-104.689c0-4.142-3.358-7.5-7.5-7.5s-7.5 3.358-7.5 7.5v104.688h-5.453c-6.893 0-12.5 5.607-12.5 12.5v31.773c0 6.893 5.607 12.5 12.5 12.5h487c6.893 0 12.5-5.607 12.5-12.5v-31.773c0-6.893-5.607-12.5-12.5-12.5zm-23.853-234.832c1.068-.413 1.908-.008 2.314.27.405.278 1.086.916 1.086 2.062v232.5h-93.393v-200.089zm-157.97 234.832v-80.768h52.978v80.768zm-54.177 0v-80.768h39.177v80.768zm-54.177 0v-80.768h39.177v80.768zm79.895-239.581v13.907c0 4.142 3.358 7.5 7.5 7.5s7.5-3.358 7.5-7.5v-13.907h66.436v62.897h-66.436v-16.305c0-4.142-3.358-7.5-7.5-7.5s-7.5 3.358-7.5 7.5v16.305h-66.437v-62.897zm-66.436 143.812v-65.915h66.437v65.915zm81.436 0v-65.915h66.436v65.915zm-96.436-80.914h-66.436v-62.897h66.436zm-66.436 15h66.436v65.915h-66.436zm198.889-135.328h-28.272v-18.818h28.272zm-125.199 0v-18.818h81.928v18.818zm-43.271-18.818h28.271v18.818h-28.271zm-27.919 33.818h224.309c1.378 0 2.5 1.122 2.5 2.5v24.931h-229.309v-24.931c0-1.379 1.121-2.5 2.5-2.5zm-2.5 201.242h52.977v80.768h-52.977zm355.654 95.769v26.773h-482v-26.773z"/></g></g></svg>